<svg id="svg" version="1.1" xmlns="http://www.w3.org/2000/svg" xmlns:xlink="http://www.w3.org/1999/xlink" width="400" height="88.28125" viewBox="0, 0, 400,88.28125"><g id="svgg"><path id="path0" d="M19.375 22.250 C 19.169 22.568,19.000 22.905,19.000 22.998 C 19.000 23.091,18.887 23.167,18.750 23.167 C 18.612 23.167,18.500 23.263,18.500 23.380 C 18.500 23.497,18.350 23.701,18.167 23.833 C 17.983 23.965,17.833 24.189,17.833 24.330 C 17.833 24.471,17.572 24.811,17.254 25.085 C 16.935 25.359,16.672 25.645,16.670 25.720 C 16.668 25.796,16.573 25.962,16.458 26.089 C 15.981 26.621,15.833 26.827,15.833 26.956 C 15.833 27.031,15.677 27.203,15.486 27.338 C 15.295 27.473,15.023 27.803,14.883 28.071 C 14.742 28.340,14.374 28.799,14.064 29.091 C 13.754 29.383,13.500 29.745,13.500 29.895 C 13.500 30.044,13.425 30.167,13.333 30.167 C 13.242 30.167,13.167 30.279,13.167 30.417 C 13.167 30.554,13.086 30.667,12.988 30.667 C 12.757 30.667,12.333 31.091,12.333 31.321 C 12.333 31.420,12.258 31.500,12.167 31.500 C 12.075 31.500,12.000 31.596,12.000 31.713 C 12.000 31.830,11.869 32.044,11.708 32.189 C 11.349 32.513,11.015 32.931,10.596 33.581 C 10.419 33.854,10.025 34.313,9.721 34.600 C 9.416 34.888,9.167 35.245,9.167 35.395 C 9.167 35.544,9.092 35.667,9.000 35.667 C 8.908 35.667,8.833 35.779,8.833 35.917 C 8.833 36.054,8.753 36.167,8.655 36.167 C 8.424 36.167,8.000 36.591,8.000 36.821 C 8.000 36.920,7.925 37.000,7.833 37.000 C 7.742 37.000,7.667 37.150,7.667 37.333 C 7.667 37.517,7.586 37.667,7.488 37.667 C 7.257 37.667,6.833 38.091,6.833 38.321 C 6.833 38.420,6.758 38.500,6.667 38.500 C 6.575 38.500,6.500 38.650,6.500 38.833 C 6.500 39.019,6.389 39.167,6.250 39.167 C 6.112 39.167,6.000 39.263,6.000 39.380 C 6.000 39.497,5.850 39.701,5.667 39.833 C 5.483 39.965,5.333 40.135,5.333 40.210 C 5.333 40.286,5.257 40.438,5.163 40.549 C 4.429 41.419,4.167 41.767,4.167 41.875 C 4.167 41.944,4.054 42.000,3.917 42.000 C 3.778 42.000,3.667 42.148,3.667 42.333 C 3.667 42.517,3.592 42.667,3.500 42.667 C 3.408 42.667,3.333 42.747,3.333 42.845 C 3.333 43.076,2.909 43.500,2.679 43.500 C 2.580 43.500,2.500 43.612,2.500 43.750 C 2.500 43.887,2.425 44.000,2.333 44.000 C 2.242 44.000,2.167 44.110,2.167 44.244 C 2.167 44.378,1.829 44.834,1.417 45.259 C 1.004 45.683,0.667 46.174,0.667 46.349 C 0.667 46.524,0.556 46.667,0.420 46.667 C -0.127 46.667,-0.128 52.026,0.419 52.435 C 0.591 52.564,0.667 52.932,0.667 53.643 C 0.667 54.214,0.740 54.667,0.833 54.667 C 0.926 54.667,1.000 55.111,1.000 55.667 C 1.000 56.222,1.074 56.667,1.167 56.667 C 1.259 56.667,1.333 57.111,1.333 57.667 C 1.333 58.410,1.393 58.667,1.566 58.667 C 1.693 58.667,1.841 58.779,1.894 58.917 C 1.946 59.054,2.104 59.167,2.245 59.167 C 2.385 59.167,2.500 59.242,2.500 59.333 C 2.500 59.426,2.944 59.500,3.500 59.500 C 4.050 59.500,4.500 59.433,4.500 59.352 C 4.500 59.270,4.762 59.155,5.083 59.094 C 5.404 59.034,5.667 58.913,5.667 58.826 C 5.667 58.738,5.854 58.667,6.083 58.667 C 6.313 58.667,6.500 58.592,6.500 58.500 C 6.500 58.408,6.710 58.333,6.967 58.333 C 7.223 58.333,7.519 58.248,7.623 58.144 C 7.896 57.870,8.348 58.401,8.955 59.708 C 9.115 60.052,9.303 60.333,9.373 60.333 C 9.443 60.333,9.500 60.483,9.500 60.667 C 9.500 60.852,9.611 61.000,9.750 61.000 C 9.887 61.000,10.002 61.131,10.005 61.292 C 10.008 61.452,10.118 61.726,10.250 61.900 C 10.382 62.073,10.450 62.280,10.401 62.358 C 10.353 62.436,10.435 62.500,10.583 62.500 C 10.732 62.500,10.810 62.570,10.757 62.655 C 10.704 62.740,10.733 62.854,10.820 62.908 C 11.027 63.036,11.500 63.987,11.500 64.276 C 11.500 64.399,11.574 64.500,11.663 64.500 C 11.753 64.500,11.874 64.687,11.932 64.917 C 11.989 65.146,12.103 65.333,12.185 65.333 C 12.266 65.333,12.333 65.483,12.333 65.667 C 12.333 65.850,12.408 66.000,12.500 66.000 C 12.592 66.000,12.667 66.112,12.667 66.250 C 12.667 66.387,12.779 66.500,12.917 66.500 C 13.072 66.500,13.167 66.657,13.167 66.917 C 13.167 67.146,13.242 67.333,13.333 67.333 C 13.425 67.333,13.500 67.483,13.500 67.667 C 13.500 67.850,13.557 68.000,13.627 68.000 C 13.754 68.000,13.800 68.074,14.408 69.276 C 14.587 69.628,14.797 69.961,14.875 70.015 C 14.953 70.069,15.029 70.275,15.044 70.473 C 15.059 70.671,15.167 70.833,15.285 70.833 C 15.403 70.833,15.500 70.983,15.500 71.167 C 15.500 71.350,15.575 71.500,15.667 71.500 C 15.758 71.500,15.833 71.650,15.833 71.833 C 15.833 72.017,15.908 72.167,16.000 72.167 C 16.092 72.167,16.167 72.282,16.167 72.422 C 16.167 72.562,16.279 72.720,16.417 72.773 C 16.554 72.826,16.667 73.011,16.667 73.184 C 16.667 73.358,16.742 73.500,16.833 73.500 C 16.925 73.500,17.000 73.601,17.000 73.724 C 17.000 74.059,17.501 75.000,17.679 75.000 C 17.764 75.000,17.833 75.098,17.833 75.217 C 17.833 75.523,18.225 76.330,18.375 76.332 C 18.444 76.333,18.500 76.448,18.500 76.589 C 18.500 76.729,18.613 76.887,18.750 76.940 C 18.888 76.992,19.002 77.159,19.005 77.309 C 19.008 77.460,19.118 77.726,19.250 77.900 C 19.382 78.073,19.450 78.280,19.401 78.358 C 19.353 78.436,19.393 78.500,19.490 78.500 C 19.587 78.500,19.667 78.604,19.667 78.732 C 19.667 78.860,19.779 79.008,19.917 79.060 C 20.054 79.113,20.167 79.309,20.167 79.495 C 20.167 79.681,20.242 79.833,20.333 79.833 C 20.425 79.833,20.500 79.983,20.500 80.167 C 20.500 80.350,20.567 80.500,20.649 80.500 C 20.730 80.500,20.844 80.687,20.902 80.917 C 20.959 81.146,21.080 81.333,21.170 81.333 C 21.260 81.333,21.333 81.483,21.333 81.667 C 21.333 81.850,21.408 82.000,21.500 82.000 C 21.592 82.000,21.667 82.080,21.667 82.179 C 21.667 82.277,21.780 82.470,21.918 82.609 C 22.057 82.747,22.127 82.930,22.074 83.015 C 22.022 83.100,22.096 83.214,22.239 83.269 C 22.383 83.324,22.500 83.511,22.500 83.684 C 22.500 83.858,22.575 84.000,22.667 84.000 C 22.758 84.000,22.833 84.152,22.833 84.339 C 22.833 84.525,22.945 84.720,23.082 84.773 C 23.219 84.825,23.295 84.927,23.251 84.999 C 23.207 85.070,23.282 85.222,23.419 85.335 C 23.555 85.448,23.667 85.644,23.667 85.770 C 23.667 85.897,23.742 86.000,23.833 86.000 C 23.925 86.000,24.000 86.179,24.000 86.399 C 24.000 86.618,24.113 86.841,24.250 86.894 C 24.387 86.946,24.500 87.104,24.500 87.245 C 24.500 87.385,24.566 87.500,24.647 87.500 C 24.728 87.500,24.836 87.661,24.888 87.857 C 25.006 88.309,27.082 88.236,27.425 87.767 C 27.532 87.620,27.743 87.500,27.893 87.500 C 28.044 87.500,28.167 87.425,28.167 87.333 C 28.167 87.242,28.279 87.167,28.417 87.167 C 28.554 87.167,28.667 87.092,28.667 87.000 C 28.667 86.908,28.854 86.833,29.083 86.833 C 29.343 86.833,29.500 86.739,29.500 86.583 C 29.500 86.428,29.657 86.333,29.917 86.333 C 30.146 86.333,30.333 86.258,30.333 86.167 C 30.333 86.075,30.483 86.000,30.667 86.000 C 30.850 86.000,31.000 85.925,31.000 85.833 C 31.000 85.742,31.188 85.667,31.417 85.667 C 31.676 85.667,31.833 85.572,31.833 85.417 C 31.833 85.261,31.991 85.167,32.250 85.167 C 32.479 85.167,32.667 85.092,32.667 85.000 C 32.667 84.908,32.817 84.833,33.000 84.833 C 33.183 84.833,33.333 84.763,33.333 84.678 C 33.333 84.592,33.496 84.471,33.696 84.408 C 33.895 84.344,34.209 84.152,34.394 83.980 C 34.578 83.807,34.865 83.667,35.031 83.667 C 35.197 83.667,35.333 83.592,35.333 83.500 C 35.333 83.408,35.521 83.333,35.750 83.333 C 36.009 83.333,36.167 83.239,36.167 83.083 C 36.167 82.944,36.315 82.833,36.500 82.833 C 36.683 82.833,36.833 82.758,36.833 82.667 C 36.833 82.575,37.021 82.500,37.250 82.500 C 37.479 82.500,37.667 82.425,37.667 82.333 C 37.667 82.242,37.819 82.167,38.005 82.167 C 38.191 82.167,38.387 82.054,38.440 81.917 C 38.492 81.779,38.678 81.667,38.851 81.667 C 39.025 81.667,39.167 81.592,39.167 81.500 C 39.167 81.408,39.359 81.333,39.593 81.333 C 39.835 81.333,39.975 81.261,39.917 81.167 C 39.860 81.075,39.936 81.000,40.085 81.000 C 40.234 81.000,40.601 80.813,40.902 80.583 C 41.202 80.354,41.572 80.167,41.724 80.167 C 41.876 80.167,42.000 80.092,42.000 80.000 C 42.000 79.908,42.152 79.833,42.339 79.833 C 42.525 79.833,42.720 79.721,42.773 79.583 C 42.826 79.446,43.011 79.333,43.184 79.333 C 43.358 79.333,43.500 79.258,43.500 79.167 C 43.500 79.075,43.688 79.000,43.917 79.000 C 44.146 79.000,44.333 78.930,44.333 78.845 C 44.333 78.760,44.502 78.664,44.708 78.633 C 44.915 78.601,45.065 78.483,45.042 78.371 C 45.019 78.259,45.098 78.167,45.217 78.167 C 45.500 78.167,47.233 77.310,47.306 77.135 C 47.336 77.061,47.467 77.000,47.597 77.000 C 47.727 77.000,47.833 76.925,47.833 76.833 C 47.833 76.742,48.021 76.667,48.250 76.667 C 48.479 76.667,48.667 76.592,48.667 76.500 C 48.667 76.408,48.817 76.333,49.000 76.333 C 49.185 76.333,49.333 76.222,49.333 76.083 C 49.333 75.928,49.491 75.833,49.750 75.833 C 49.979 75.833,50.167 75.758,50.167 75.667 C 50.167 75.575,50.322 75.500,50.512 75.500 C 50.702 75.500,50.962 75.406,51.089 75.292 C 51.683 74.760,51.842 74.667,52.160 74.667 C 52.347 74.667,52.500 74.592,52.500 74.500 C 52.500 74.408,52.587 74.333,52.693 74.333 C 52.799 74.333,53.131 74.146,53.431 73.917 C 53.732 73.687,54.095 73.500,54.239 73.500 C 54.382 73.500,54.500 73.425,54.500 73.333 C 54.500 73.242,54.606 73.167,54.736 73.167 C 55.034 73.167,55.998 72.626,55.999 72.458 C 56.000 72.390,56.188 72.333,56.417 72.333 C 56.646 72.333,56.834 72.277,56.834 72.208 C 56.834 72.140,57.172 71.945,57.584 71.775 C 57.996 71.606,58.333 71.399,58.333 71.317 C 58.333 71.234,58.488 71.167,58.677 71.167 C 58.865 71.167,58.973 71.092,58.917 71.000 C 58.860 70.908,58.963 70.833,59.145 70.833 C 59.327 70.833,59.589 70.721,59.726 70.583 C 59.864 70.446,60.057 70.333,60.155 70.333 C 60.253 70.333,60.333 70.258,60.333 70.167 C 60.333 70.075,60.521 70.000,60.750 70.000 C 60.979 70.000,61.167 69.925,61.167 69.833 C 61.167 69.742,61.317 69.667,61.500 69.667 C 61.685 69.667,61.833 69.556,61.833 69.417 C 61.833 69.261,61.991 69.167,62.250 69.167 C 62.479 69.167,62.667 69.092,62.667 69.000 C 62.667 68.908,62.854 68.833,63.083 68.833 C 63.313 68.833,63.500 68.758,63.500 68.667 C 63.500 68.575,63.650 68.500,63.833 68.500 C 64.019 68.500,64.167 68.389,64.167 68.250 C 64.167 68.094,64.324 68.000,64.583 68.000 C 64.813 68.000,65.000 67.925,65.000 67.833 C 65.000 67.742,65.106 67.667,65.236 67.667 C 65.534 67.667,66.498 67.126,66.499 66.958 C 66.500 66.890,66.612 66.833,66.750 66.833 C 66.887 66.833,67.000 66.758,67.000 66.667 C 67.000 66.575,67.188 66.500,67.417 66.500 C 67.646 66.500,67.833 66.425,67.833 66.333 C 67.833 66.242,67.948 66.167,68.089 66.167 C 68.229 66.167,68.387 66.054,68.440 65.917 C 68.492 65.779,68.715 65.667,68.934 65.667 C 69.154 65.667,69.333 65.600,69.333 65.518 C 69.333 65.436,69.520 65.323,69.747 65.266 C 70.139 65.167,70.833 64.083,70.833 63.570 C 70.833 63.459,70.946 63.326,71.083 63.273 C 71.221 63.220,71.333 63.062,71.333 62.922 C 71.333 62.782,71.408 62.667,71.500 62.667 C 71.592 62.667,71.667 62.479,71.667 62.250 C 71.667 62.021,71.742 61.833,71.833 61.833 C 71.925 61.833,72.000 61.646,72.000 61.417 C 72.000 61.188,72.094 60.999,72.208 60.999 C 72.426 60.997,72.833 60.264,72.833 59.874 C 72.833 59.749,72.908 59.693,73.000 59.750 C 73.094 59.808,73.167 59.674,73.167 59.444 C 73.167 59.220,73.279 58.992,73.417 58.940 C 73.554 58.887,73.667 58.729,73.667 58.589 C 73.667 58.448,73.742 58.333,73.833 58.333 C 73.925 58.333,74.000 58.146,74.000 57.917 C 74.000 57.688,74.075 57.500,74.167 57.500 C 74.258 57.500,74.333 57.358,74.333 57.184 C 74.333 57.011,74.446 56.826,74.583 56.773 C 74.721 56.720,74.833 56.525,74.833 56.339 C 74.833 56.152,74.908 56.000,75.000 56.000 C 75.265 56.000,75.203 54.179,74.929 53.905 C 74.798 53.774,74.642 53.667,74.583 53.667 C 74.444 53.667,74.000 53.222,74.000 53.083 C 74.000 52.910,73.539 52.500,73.345 52.500 C 73.247 52.500,73.167 52.350,73.167 52.167 C 73.167 51.983,73.092 51.833,73.000 51.833 C 72.908 51.833,72.833 51.753,72.833 51.655 C 72.833 51.424,72.409 51.000,72.179 51.000 C 72.080 51.000,72.000 50.918,72.000 50.818 C 72.000 50.719,71.662 50.309,71.250 49.908 C 70.837 49.507,70.500 49.098,70.500 48.998 C 70.500 48.899,70.162 48.475,69.750 48.057 C 69.338 47.638,69.000 47.229,69.000 47.148 C 69.000 47.067,68.920 47.000,68.821 47.000 C 68.627 47.000,68.167 46.590,68.167 46.417 C 68.167 46.358,68.073 46.211,67.958 46.090 C 67.844 45.969,67.605 45.670,67.427 45.425 C 66.875 44.663,66.552 44.333,66.355 44.333 C 66.252 44.333,66.167 44.255,66.167 44.159 C 66.167 44.063,65.998 43.804,65.792 43.584 C 65.240 42.994,65.000 42.692,65.000 42.589 C 65.000 42.539,64.475 41.963,63.833 41.310 C 63.192 40.657,62.667 40.048,62.667 39.958 C 62.667 39.867,62.329 39.470,61.917 39.075 C 61.504 38.680,61.167 38.276,61.167 38.178 C 61.167 38.080,61.086 38.000,60.988 38.000 C 60.783 38.000,60.498 37.714,60.233 37.243 C 59.806 36.484,59.535 36.614,55.710 39.417 C 54.132 40.573,54.145 40.533,54.935 41.767 C 59.029 48.167,57.288 57.592,51.366 61.091 C 51.073 61.264,50.833 61.464,50.833 61.536 C 50.833 61.608,50.760 61.667,50.670 61.667 C 50.580 61.667,50.096 61.929,49.595 62.250 C 49.093 62.571,48.644 62.833,48.596 62.833 C 48.548 62.833,48.113 63.016,47.630 63.239 C 44.347 64.753,37.928 65.467,34.667 64.681 C 28.811 63.269,25.893 61.743,22.453 58.295 C 18.567 54.399,16.749 48.884,17.907 44.500 C 18.064 43.904,18.235 43.237,18.287 43.018 C 19.460 38.052,26.200 33.033,32.733 32.263 C 33.689 32.150,34.093 31.896,33.826 31.575 C 33.719 31.445,33.609 29.839,33.548 27.499 C 33.436 23.202,33.426 23.167,32.331 23.167 C 31.977 23.167,31.640 23.092,31.583 23.000 C 31.527 22.908,30.779 22.833,29.917 22.833 C 29.054 22.833,28.307 22.759,28.250 22.667 C 28.193 22.575,27.476 22.500,26.657 22.500 C 25.443 22.500,25.167 22.454,25.167 22.250 C 25.167 22.045,24.880 22.000,23.583 22.000 C 22.639 22.000,22.000 21.933,22.000 21.833 C 22.000 21.311,19.752 21.667,19.375 22.250 " stroke="none" fill="#1c91f6" fill-rule="evenodd"></path><path id="path1" d="M44.060 0.417 C 44.008 0.554,43.860 0.667,43.732 0.667 C 43.604 0.667,43.500 0.742,43.500 0.833 C 43.500 0.925,43.399 1.000,43.277 1.000 C 43.154 1.000,42.696 1.337,42.259 1.750 C 41.822 2.163,41.323 2.500,41.149 2.500 C 40.975 2.500,40.833 2.580,40.833 2.679 C 40.833 2.939,40.397 3.333,40.107 3.333 C 39.970 3.333,39.710 3.521,39.530 3.750 C 39.350 3.979,39.119 4.167,39.018 4.167 C 38.916 4.167,38.833 4.242,38.833 4.333 C 38.833 4.425,38.683 4.500,38.500 4.500 C 38.317 4.500,38.185 4.590,38.208 4.701 C 38.231 4.811,38.172 4.905,38.076 4.909 C 37.980 4.913,37.695 5.123,37.443 5.375 C 37.191 5.627,36.876 5.833,36.742 5.833 C 36.609 5.833,36.500 5.913,36.500 6.010 C 36.500 6.107,36.425 6.140,36.333 6.083 C 36.242 6.027,36.167 6.097,36.167 6.240 C 36.167 6.383,36.050 6.500,35.907 6.500 C 35.764 6.500,35.693 6.575,35.750 6.667 C 35.809 6.762,35.654 6.834,35.385 6.836 C 35.062 6.838,34.986 6.883,35.141 6.981 C 35.306 7.085,35.250 7.152,34.926 7.233 C 34.684 7.293,34.531 7.416,34.586 7.505 C 34.641 7.594,34.604 7.667,34.503 7.667 C 34.402 7.667,34.158 7.817,33.962 8.000 C 33.765 8.183,33.467 8.333,33.299 8.333 C 32.901 8.333,32.834 23.025,33.230 23.421 C 33.389 23.580,33.474 24.663,33.548 27.499 C 33.609 29.839,33.719 31.445,33.826 31.575 C 34.093 31.896,33.689 32.150,32.733 32.263 C 26.200 33.033,19.460 38.052,18.287 43.018 C 18.235 43.237,18.064 43.904,17.907 44.500 C 16.749 48.884,18.567 54.399,22.453 58.295 C 25.893 61.743,28.811 63.269,34.667 64.681 C 37.928 65.467,44.347 64.753,47.630 63.239 C 48.113 63.016,48.548 62.833,48.596 62.833 C 48.644 62.833,49.093 62.571,49.595 62.250 C 50.096 61.929,50.580 61.667,50.670 61.667 C 50.760 61.667,50.833 61.608,50.833 61.536 C 50.833 61.464,51.073 61.264,51.366 61.091 C 55.811 58.465,58.393 51.166,56.764 45.833 C 56.204 44.001,54.519 40.667,54.152 40.667 C 53.643 40.667,53.259 41.333,53.509 41.783 C 56.096 46.444,56.334 50.261,54.290 54.286 C 53.997 54.862,53.700 55.333,53.629 55.333 C 53.558 55.333,53.500 55.446,53.500 55.583 C 53.500 55.721,53.425 55.833,53.333 55.833 C 53.099 55.833,53.126 55.552,53.401 55.119 C 55.306 52.124,54.898 47.052,52.460 43.417 C 51.764 42.380,51.718 42.385,50.011 43.668 C 48.731 44.631,46.109 45.497,45.703 45.092 C 45.632 45.021,46.687 44.040,47.200 43.698 C 47.642 43.403,48.367 42.868,50.167 41.508 C 50.762 41.057,52.525 39.736,54.083 38.572 C 55.642 37.408,56.977 36.372,57.052 36.270 C 57.179 36.094,57.162 34.365,56.893 20.150 C 56.825 16.556,56.843 14.347,56.942 14.286 C 57.030 14.232,57.828 14.168,58.717 14.145 C 60.672 14.092,60.793 13.873,59.583 12.574 C 59.171 12.131,58.833 11.708,58.833 11.634 C 58.833 11.560,58.739 11.500,58.623 11.500 C 58.507 11.500,58.263 11.299,58.081 11.054 C 57.899 10.809,57.635 10.490,57.495 10.346 C 57.355 10.201,57.138 9.881,57.013 9.633 C 56.888 9.385,56.703 9.198,56.601 9.216 C 56.500 9.235,56.435 9.156,56.458 9.042 C 56.481 8.927,56.420 8.833,56.321 8.833 C 56.109 8.833,55.667 8.416,55.667 8.215 C 55.667 8.137,55.512 7.963,55.323 7.828 C 55.134 7.694,54.863 7.340,54.721 7.043 C 54.579 6.746,54.405 6.539,54.334 6.583 C 54.263 6.627,54.162 6.498,54.109 6.297 C 54.056 6.096,53.969 5.975,53.916 6.029 C 53.825 6.119,52.833 5.235,52.833 5.064 C 52.833 5.021,52.683 4.825,52.500 4.628 C 52.317 4.431,52.166 4.153,52.164 4.010 C 52.162 3.797,52.135 3.792,52.016 3.980 C 51.901 4.161,51.846 4.135,51.757 3.855 C 51.695 3.660,51.537 3.500,51.405 3.500 C 51.274 3.500,51.167 3.425,51.167 3.333 C 51.167 3.242,51.092 3.167,51.000 3.167 C 50.730 3.167,50.806 3.801,51.314 5.792 C 51.953 8.294,51.867 8.262,48.913 4.905 C 48.182 4.074,47.096 2.845,46.500 2.174 C 45.904 1.503,45.321 0.777,45.203 0.560 C 44.959 0.111,44.214 0.017,44.060 0.417 M43.596 10.008 C 43.995 10.255,44.245 10.608,44.497 11.280 C 44.688 11.792,45.067 12.418,45.339 12.672 C 45.611 12.926,45.833 13.213,45.833 13.309 C 45.833 13.406,46.021 13.672,46.250 13.902 C 46.479 14.131,46.667 14.397,46.667 14.492 C 46.667 14.588,46.784 14.667,46.927 14.667 C 47.069 14.667,47.140 14.742,47.083 14.833 C 47.027 14.925,47.065 15.000,47.169 15.000 C 47.393 15.000,47.833 15.414,47.833 15.626 C 47.833 15.708,48.021 15.951,48.250 16.167 C 48.479 16.382,48.667 16.625,48.667 16.708 C 48.667 16.915,49.105 17.333,49.321 17.333 C 49.420 17.333,49.500 17.429,49.500 17.547 C 49.500 17.664,49.650 17.868,49.833 18.000 C 50.017 18.132,50.167 18.332,50.167 18.445 C 50.167 18.558,50.270 18.710,50.396 18.783 C 50.745 18.986,51.332 20.035,51.333 20.458 C 51.333 20.680,51.435 20.833,51.583 20.833 C 51.971 20.833,51.939 23.680,51.544 24.298 C 50.409 26.070,49.860 25.787,45.950 21.418 C 41.845 16.829,41.000 15.770,41.000 15.216 C 41.000 15.042,40.911 14.811,40.801 14.701 C 40.488 14.388,40.555 11.877,40.899 11.109 C 41.513 9.732,42.499 9.330,43.596 10.008 M37.057 22.625 C 37.281 27.798,37.458 28.713,38.441 29.780 C 39.239 30.646,39.462 30.912,40.085 31.750 C 40.358 32.117,40.675 32.476,40.790 32.550 C 40.905 32.623,41.168 32.931,41.374 33.234 C 41.581 33.537,42.162 34.257,42.667 34.833 C 43.171 35.409,43.689 36.039,43.818 36.232 C 43.946 36.425,44.265 36.808,44.526 37.083 C 45.287 37.887,45.830 38.550,46.128 39.042 C 46.280 39.294,46.469 39.500,46.548 39.500 C 46.626 39.500,46.578 39.613,46.440 39.750 C 46.045 40.145,45.546 39.756,44.090 37.917 C 43.728 37.458,43.203 36.858,42.924 36.583 C 42.645 36.308,42.196 35.783,41.926 35.417 C 41.656 35.050,41.169 34.477,40.843 34.144 C 40.517 33.810,40.025 33.253,39.750 32.905 C 39.475 32.556,39.025 32.031,38.750 31.738 C 36.546 29.384,36.708 29.892,36.620 25.042 C 36.558 21.649,36.586 20.833,36.761 20.833 C 36.922 20.833,36.999 21.301,37.057 22.625 M35.344 33.173 C 35.522 33.267,35.667 33.425,35.667 33.524 C 35.667 33.622,35.858 33.853,36.092 34.037 C 36.902 34.674,36.623 35.570,35.594 35.635 C 34.608 35.698,33.889 36.160,33.562 36.941 C 33.434 37.249,33.255 37.500,33.164 37.500 C 33.074 37.500,33.000 37.625,33.000 37.779 C 33.000 37.932,32.875 38.195,32.723 38.363 C 32.341 38.785,32.567 38.936,33.224 38.699 C 33.526 38.589,33.900 38.500,34.053 38.500 C 34.207 38.500,34.333 38.425,34.333 38.333 C 34.333 38.242,34.558 38.167,34.833 38.167 C 35.351 38.167,35.625 39.467,35.167 39.750 C 35.075 39.807,35.000 40.068,35.000 40.331 C 35.000 40.594,34.881 40.928,34.736 41.073 C 34.356 41.454,34.783 45.833,35.201 45.833 C 35.274 45.833,35.333 45.993,35.333 46.189 C 35.333 46.384,35.465 46.666,35.625 46.814 C 35.994 47.155,37.333 49.140,37.333 49.346 C 37.333 49.430,37.400 49.500,37.481 49.500 C 37.562 49.500,37.749 49.744,37.897 50.042 C 38.419 51.095,39.000 51.605,39.000 51.010 C 39.000 50.832,39.075 50.640,39.167 50.583 C 39.258 50.527,39.333 50.302,39.333 50.083 C 39.333 49.865,39.408 49.640,39.500 49.583 C 39.592 49.527,39.667 49.328,39.667 49.141 C 39.667 48.954,39.771 48.602,39.900 48.359 C 40.028 48.116,40.224 47.579,40.337 47.167 C 40.449 46.754,40.719 46.053,40.937 45.610 C 41.155 45.166,41.333 44.626,41.333 44.411 C 41.333 44.196,41.408 43.973,41.500 43.917 C 41.592 43.860,41.667 43.635,41.667 43.417 C 41.667 43.198,41.736 42.977,41.821 42.925 C 41.905 42.872,42.024 42.605,42.084 42.331 C 42.249 41.578,42.451 41.689,43.750 43.247 C 44.766 44.465,44.756 44.335,44.014 46.581 C 43.166 49.147,43.124 48.798,44.512 50.667 C 45.160 51.538,45.815 52.420,45.969 52.628 C 46.500 53.342,46.284 53.501,42.313 55.311 C 39.744 56.481,40.030 56.454,39.452 55.583 C 38.991 54.888,35.828 50.489,35.591 50.214 C 35.242 49.809,35.058 49.560,34.136 48.250 C 33.620 47.517,33.004 46.692,32.766 46.417 C 32.528 46.142,32.334 45.860,32.334 45.792 C 32.333 45.723,32.202 45.532,32.042 45.368 C 31.881 45.203,31.600 44.858,31.417 44.601 C 30.288 43.018,29.964 42.897,29.512 43.889 C 29.331 44.287,29.067 44.709,28.925 44.826 C 28.783 44.944,28.667 45.139,28.667 45.259 C 28.667 45.463,28.480 45.795,27.542 47.262 C 27.335 47.584,27.167 47.916,27.167 47.999 C 27.167 48.082,26.942 48.483,26.667 48.891 C 26.392 49.298,26.167 49.705,26.167 49.795 C 26.167 49.885,26.054 50.053,25.917 50.167 C 25.779 50.281,25.667 50.515,25.667 50.687 C 25.667 50.859,25.600 51.000,25.519 51.000 C 25.438 51.000,25.255 51.245,25.113 51.544 C 24.971 51.844,24.662 52.372,24.427 52.718 C 24.192 53.065,24.000 53.416,24.000 53.500 C 24.000 53.584,23.813 53.928,23.583 54.266 C 23.155 54.897,23.048 55.333,23.322 55.333 C 23.408 55.333,23.520 55.465,23.571 55.625 C 23.623 55.785,23.834 56.117,24.041 56.361 C 24.929 57.411,25.020 57.535,24.950 57.606 C 24.667 57.889,21.644 54.534,20.800 53.000 C 15.881 44.057,22.126 34.558,33.833 33.175 C 34.429 33.105,34.940 33.037,34.969 33.024 C 34.998 33.011,35.167 33.078,35.344 33.173 " stroke="none" fill="#d1d2d5" fill-rule="evenodd"></path><path id="path2" d="M183.500 26.167 C 183.500 26.258,183.125 26.333,182.667 26.333 C 182.208 26.333,181.833 26.408,181.833 26.500 C 181.833 26.592,181.571 26.667,181.250 26.667 C 180.843 26.667,180.667 26.742,180.667 26.917 C 180.667 27.091,180.491 27.167,180.083 27.167 C 179.762 27.167,179.500 27.242,179.500 27.333 C 179.500 27.425,179.313 27.500,179.083 27.500 C 178.854 27.500,178.667 27.575,178.667 27.667 C 178.667 27.758,178.517 27.833,178.333 27.833 C 178.148 27.833,178.000 27.944,178.000 28.083 C 178.000 28.232,177.847 28.333,177.620 28.333 C 177.411 28.333,177.132 28.483,177.000 28.667 C 176.868 28.850,176.637 29.000,176.487 29.000 C 176.336 29.000,176.073 29.188,175.900 29.417 C 175.728 29.646,175.525 29.833,175.449 29.833 C 175.372 29.833,175.205 29.927,175.077 30.042 C 174.572 30.494,174.343 30.667,174.245 30.667 C 174.094 30.667,173.667 31.121,173.667 31.282 C 173.667 31.358,173.479 31.562,173.250 31.734 C 173.021 31.906,172.833 32.149,172.833 32.273 C 172.833 32.398,172.758 32.500,172.667 32.500 C 172.575 32.500,172.500 32.612,172.500 32.750 C 172.500 32.887,172.420 33.000,172.321 33.000 C 172.048 33.000,171.667 33.442,171.667 33.760 C 171.667 33.916,171.527 34.166,171.357 34.314 C 171.187 34.462,170.994 34.752,170.929 34.958 C 170.864 35.165,170.741 35.333,170.655 35.333 C 170.570 35.333,170.500 35.521,170.500 35.750 C 170.500 35.979,170.425 36.167,170.333 36.167 C 170.242 36.167,170.167 36.349,170.167 36.571 C 170.167 36.794,170.054 37.089,169.917 37.226 C 169.779 37.364,169.667 37.627,169.667 37.812 C 169.667 37.996,169.592 38.193,169.500 38.250 C 169.408 38.307,169.333 38.649,169.333 39.010 C 169.333 39.371,169.258 39.667,169.167 39.667 C 169.068 39.667,169.000 40.271,169.000 41.146 C 169.000 42.258,168.938 42.677,168.750 42.833 C 168.577 42.977,168.500 43.360,168.500 44.083 C 168.500 44.807,168.577 45.189,168.750 45.333 C 168.938 45.489,169.000 45.909,169.000 47.020 C 169.000 47.896,169.068 48.500,169.167 48.500 C 169.258 48.500,169.333 48.796,169.333 49.157 C 169.333 49.518,169.408 49.860,169.500 49.917 C 169.592 49.973,169.667 50.171,169.667 50.355 C 169.667 50.540,169.779 50.803,169.917 50.940 C 170.054 51.078,170.167 51.373,170.167 51.595 C 170.167 51.818,170.242 52.000,170.333 52.000 C 170.425 52.000,170.500 52.188,170.500 52.417 C 170.500 52.646,170.570 52.833,170.655 52.833 C 170.741 52.833,170.864 53.002,170.929 53.208 C 170.994 53.415,171.187 53.705,171.357 53.853 C 171.527 54.001,171.667 54.250,171.667 54.406 C 171.667 54.724,172.048 55.167,172.321 55.167 C 172.420 55.167,172.500 55.279,172.500 55.417 C 172.500 55.554,172.575 55.667,172.667 55.667 C 172.758 55.667,172.833 55.769,172.833 55.893 C 172.833 56.018,173.021 56.261,173.250 56.433 C 173.479 56.605,173.667 56.808,173.667 56.885 C 173.667 57.048,174.095 57.500,174.250 57.500 C 174.309 57.500,174.462 57.594,174.589 57.708 C 175.120 58.184,175.326 58.333,175.453 58.333 C 175.527 58.333,175.728 58.521,175.900 58.750 C 176.073 58.979,176.336 59.167,176.487 59.167 C 176.637 59.167,176.868 59.317,177.000 59.500 C 177.132 59.683,177.411 59.833,177.620 59.833 C 177.847 59.833,178.000 59.934,178.000 60.083 C 178.000 60.222,178.148 60.333,178.333 60.333 C 178.517 60.333,178.667 60.408,178.667 60.500 C 178.667 60.592,178.854 60.667,179.083 60.667 C 179.313 60.667,179.500 60.742,179.500 60.833 C 179.500 60.925,179.762 61.000,180.083 61.000 C 180.491 61.000,180.667 61.075,180.667 61.250 C 180.667 61.425,180.843 61.500,181.250 61.500 C 181.571 61.500,181.833 61.575,181.833 61.667 C 181.833 61.758,182.208 61.833,182.667 61.833 C 183.125 61.833,183.500 61.908,183.500 62.000 C 183.500 62.107,185.083 62.167,187.917 62.167 C 190.750 62.167,192.333 62.107,192.333 62.000 C 192.333 61.908,192.704 61.833,193.157 61.833 C 193.610 61.833,194.027 61.758,194.083 61.667 C 194.140 61.575,194.402 61.500,194.665 61.500 C 194.928 61.500,195.255 61.387,195.393 61.250 C 195.530 61.112,195.798 61.000,195.988 61.000 C 196.178 61.000,196.333 60.925,196.333 60.833 C 196.333 60.742,196.479 60.667,196.657 60.667 C 196.835 60.667,197.027 60.592,197.083 60.500 C 197.140 60.408,197.324 60.333,197.492 60.333 C 197.660 60.333,197.841 60.221,197.894 60.083 C 197.946 59.946,198.142 59.833,198.328 59.833 C 198.514 59.833,198.667 59.758,198.667 59.667 C 198.667 59.575,198.789 59.500,198.939 59.500 C 199.089 59.500,199.386 59.313,199.598 59.083 C 199.810 58.854,200.100 58.667,200.242 58.667 C 200.384 58.667,200.500 58.592,200.500 58.500 C 200.500 58.408,200.580 58.333,200.679 58.333 C 200.909 58.333,201.333 57.909,201.333 57.679 C 201.333 57.580,201.412 57.500,201.508 57.500 C 201.734 57.500,202.500 56.734,202.500 56.508 C 202.500 56.412,202.580 56.333,202.679 56.333 C 202.909 56.333,203.333 55.909,203.333 55.679 C 203.333 55.580,203.408 55.500,203.500 55.500 C 203.592 55.500,203.667 55.350,203.667 55.167 C 203.667 54.983,203.752 54.833,203.857 54.833 C 204.113 54.833,204.488 54.319,204.495 53.958 C 204.498 53.798,204.575 53.667,204.667 53.667 C 204.758 53.667,204.833 53.554,204.833 53.417 C 204.833 53.279,204.891 53.167,204.962 53.167 C 205.033 53.167,205.229 52.885,205.397 52.542 C 205.566 52.198,205.770 51.786,205.852 51.627 C 205.933 51.468,206.000 51.157,206.000 50.937 C 206.000 50.716,206.112 50.492,206.250 50.440 C 206.395 50.384,206.500 50.135,206.500 49.848 C 206.500 49.576,206.575 49.307,206.667 49.250 C 206.758 49.193,206.833 48.739,206.833 48.240 C 206.833 47.741,206.908 47.333,207.000 47.333 C 207.105 47.333,207.167 46.139,207.167 44.083 C 207.167 42.028,207.105 40.833,207.000 40.833 C 206.908 40.833,206.833 40.425,206.833 39.927 C 206.833 39.428,206.758 38.973,206.667 38.917 C 206.575 38.860,206.500 38.591,206.500 38.318 C 206.500 38.032,206.395 37.782,206.250 37.727 C 206.112 37.674,206.000 37.451,206.000 37.230 C 206.000 37.009,205.933 36.699,205.852 36.539 C 205.770 36.380,205.566 35.969,205.397 35.625 C 205.229 35.281,205.033 35.000,204.962 35.000 C 204.891 35.000,204.833 34.887,204.833 34.750 C 204.833 34.612,204.758 34.500,204.667 34.500 C 204.575 34.500,204.500 34.350,204.500 34.167 C 204.500 33.983,204.425 33.833,204.333 33.833 C 204.242 33.833,204.167 33.721,204.167 33.583 C 204.167 33.446,204.054 33.333,203.917 33.333 C 203.778 33.333,203.667 33.185,203.667 33.000 C 203.667 32.817,203.592 32.667,203.500 32.667 C 203.408 32.667,203.333 32.586,203.333 32.488 C 203.333 32.257,202.909 31.833,202.679 31.833 C 202.580 31.833,202.500 31.755,202.500 31.659 C 202.500 31.433,201.734 30.667,201.508 30.667 C 201.412 30.667,201.333 30.586,201.333 30.488 C 201.333 30.257,200.909 29.833,200.679 29.833 C 200.580 29.833,200.500 29.758,200.500 29.667 C 200.500 29.575,200.384 29.500,200.242 29.500 C 200.100 29.500,199.810 29.313,199.598 29.083 C 199.386 28.854,199.089 28.667,198.939 28.667 C 198.789 28.667,198.667 28.592,198.667 28.500 C 198.667 28.408,198.514 28.333,198.328 28.333 C 198.142 28.333,197.946 28.221,197.894 28.083 C 197.841 27.946,197.660 27.833,197.492 27.833 C 197.324 27.833,197.140 27.758,197.083 27.667 C 197.027 27.575,196.835 27.500,196.657 27.500 C 196.479 27.500,196.333 27.425,196.333 27.333 C 196.333 27.242,196.178 27.167,195.988 27.167 C 195.798 27.167,195.530 27.054,195.393 26.917 C 195.255 26.779,194.928 26.667,194.665 26.667 C 194.402 26.667,194.140 26.592,194.083 26.500 C 194.027 26.408,193.610 26.333,193.157 26.333 C 192.704 26.333,192.333 26.258,192.333 26.167 C 192.333 26.060,190.750 26.000,187.917 26.000 C 185.083 26.000,183.500 26.060,183.500 26.167 M99.041 44.208 L 99.083 62.083 103.333 62.083 L 107.583 62.083 107.628 57.292 L 107.672 52.500 111.091 52.500 C 113.977 52.500,114.525 52.461,114.606 52.250 C 114.685 52.046,115.095 52.000,116.851 52.000 C 118.173 52.000,119.000 51.936,119.000 51.833 C 119.000 51.742,119.337 51.667,119.750 51.667 C 120.162 51.667,120.500 51.592,120.500 51.500 C 120.500 51.408,120.763 51.333,121.083 51.333 C 121.491 51.333,121.667 51.258,121.667 51.083 C 121.667 50.909,121.843 50.833,122.250 50.833 C 122.571 50.833,122.833 50.758,122.833 50.667 C 122.833 50.575,122.965 50.498,123.125 50.495 C 123.485 50.488,124.000 50.113,124.000 49.857 C 124.000 49.752,124.171 49.667,124.380 49.667 C 124.589 49.667,124.868 49.517,125.000 49.333 C 125.132 49.150,125.328 49.000,125.436 49.000 C 125.543 49.000,125.674 48.887,125.727 48.750 C 125.780 48.612,125.919 48.499,126.036 48.499 C 126.154 48.498,126.435 48.227,126.660 47.895 C 126.886 47.564,127.280 47.069,127.535 46.796 C 127.791 46.522,128.000 46.194,128.000 46.066 C 128.000 45.938,128.075 45.833,128.167 45.833 C 128.258 45.833,128.333 45.646,128.333 45.417 C 128.333 45.188,128.408 45.000,128.500 45.000 C 128.592 45.000,128.667 44.882,128.667 44.738 C 128.667 44.594,128.779 44.364,128.917 44.226 C 129.054 44.089,129.167 43.757,129.167 43.488 C 129.167 43.220,129.242 43.000,129.333 43.000 C 129.431 43.000,129.500 42.417,129.500 41.583 C 129.500 40.750,129.569 40.167,129.667 40.167 C 129.758 40.167,129.833 39.796,129.833 39.343 C 129.833 38.890,129.758 38.473,129.667 38.417 C 129.575 38.360,129.500 37.685,129.500 36.917 C 129.500 36.148,129.425 35.473,129.333 35.417 C 129.242 35.360,129.167 35.091,129.167 34.818 C 129.167 34.532,129.061 34.282,128.917 34.227 C 128.779 34.174,128.667 33.952,128.667 33.732 C 128.667 33.513,128.592 33.333,128.500 33.333 C 128.408 33.333,128.333 33.227,128.333 33.097 C 128.333 32.799,127.793 31.836,127.625 31.834 C 127.556 31.834,127.500 31.758,127.500 31.667 C 127.500 31.449,125.551 29.500,125.333 29.500 C 125.242 29.500,125.167 29.415,125.167 29.310 C 125.167 29.054,124.652 28.679,124.292 28.672 C 124.131 28.669,124.000 28.592,124.000 28.500 C 124.000 28.408,123.888 28.333,123.750 28.333 C 123.612 28.333,123.500 28.273,123.500 28.199 C 123.500 28.031,122.318 27.500,121.944 27.500 C 121.791 27.500,121.667 27.425,121.667 27.333 C 121.667 27.242,121.412 27.167,121.101 27.167 C 120.752 27.167,120.499 27.071,120.440 26.917 C 120.377 26.753,120.116 26.667,119.682 26.667 C 119.318 26.667,118.973 26.592,118.917 26.500 C 118.850 26.392,115.331 26.333,108.906 26.333 L 98.998 26.333 99.041 44.208 M134.500 43.986 C 134.500 53.696,134.546 61.758,134.601 61.903 C 134.690 62.134,135.229 62.167,138.934 62.167 L 143.167 62.167 143.167 57.333 L 143.167 52.500 146.667 52.500 C 148.889 52.500,150.167 52.561,150.167 52.667 C 150.167 52.758,150.279 52.833,150.417 52.833 C 150.566 52.833,150.667 52.987,150.667 53.213 C 150.667 53.422,150.817 53.701,151.000 53.833 C 151.183 53.965,151.333 54.197,151.333 54.347 C 151.333 54.497,151.521 54.761,151.750 54.933 C 151.979 55.105,152.169 55.359,152.172 55.498 C 152.179 55.825,152.567 56.333,152.810 56.333 C 152.915 56.333,153.000 56.469,153.000 56.635 C 153.000 56.801,153.150 57.098,153.333 57.295 C 153.517 57.492,153.667 57.713,153.667 57.786 C 153.667 57.860,153.854 58.122,154.083 58.369 C 154.313 58.617,154.500 58.897,154.500 58.993 C 154.500 59.088,154.575 59.167,154.667 59.167 C 154.758 59.167,154.833 59.317,154.833 59.500 C 154.833 59.685,154.944 59.833,155.083 59.833 C 155.221 59.833,155.333 59.946,155.333 60.083 C 155.333 60.221,155.408 60.333,155.500 60.333 C 155.592 60.333,155.667 60.456,155.667 60.606 C 155.667 60.756,155.854 61.052,156.083 61.265 C 156.313 61.477,156.500 61.767,156.500 61.909 C 156.500 62.135,157.066 62.167,161.167 62.167 L 165.833 62.167 165.833 61.583 C 165.833 61.262,165.758 61.000,165.667 61.000 C 165.575 61.000,165.500 60.885,165.500 60.745 C 165.500 60.604,165.387 60.446,165.250 60.394 C 165.112 60.341,165.000 60.193,165.000 60.066 C 165.000 59.938,164.925 59.833,164.833 59.833 C 164.742 59.833,164.667 59.711,164.667 59.561 C 164.667 59.411,164.479 59.114,164.250 58.902 C 164.021 58.690,163.833 58.400,163.833 58.258 C 163.833 58.116,163.758 58.000,163.667 58.000 C 163.575 58.000,163.500 57.920,163.500 57.821 C 163.500 57.723,163.406 57.538,163.292 57.411 C 162.843 56.910,162.667 56.677,162.667 56.583 C 162.667 56.529,162.479 56.283,162.250 56.036 C 162.021 55.789,161.833 55.509,161.833 55.413 C 161.833 55.318,161.683 55.132,161.500 55.000 C 161.317 54.868,161.167 54.637,161.167 54.487 C 161.167 54.336,160.979 54.073,160.750 53.900 C 160.521 53.728,160.333 53.450,160.333 53.282 C 160.333 52.946,159.960 52.500,159.679 52.500 C 159.580 52.500,159.500 52.364,159.500 52.198 C 159.500 52.032,159.369 51.747,159.208 51.565 C 158.643 50.922,158.466 50.500,158.760 50.500 C 158.905 50.500,159.128 50.406,159.256 50.292 C 159.788 49.815,159.993 49.667,160.123 49.667 C 160.198 49.667,160.368 49.517,160.500 49.333 C 160.632 49.150,160.831 49.000,160.942 49.000 C 161.248 49.000,162.667 47.577,162.667 47.270 C 162.667 47.121,162.752 47.000,162.857 47.000 C 163.113 47.000,163.488 46.485,163.495 46.125 C 163.498 45.965,163.575 45.833,163.667 45.833 C 163.758 45.833,163.833 45.681,163.833 45.495 C 163.833 45.309,163.946 45.113,164.083 45.060 C 164.221 45.008,164.333 44.827,164.333 44.659 C 164.333 44.491,164.408 44.307,164.500 44.250 C 164.592 44.193,164.667 43.931,164.667 43.667 C 164.667 43.402,164.742 43.140,164.833 43.083 C 164.925 43.027,165.000 42.391,165.000 41.671 C 165.000 40.950,165.071 40.336,165.159 40.306 C 165.472 40.196,165.554 38.911,165.267 38.624 C 165.067 38.424,165.000 38.024,165.000 37.022 C 165.000 36.287,164.925 35.640,164.833 35.583 C 164.742 35.527,164.667 35.227,164.667 34.917 C 164.667 34.607,164.592 34.307,164.500 34.250 C 164.408 34.193,164.333 33.999,164.333 33.818 C 164.333 33.637,164.221 33.446,164.083 33.394 C 163.946 33.341,163.833 33.195,163.833 33.071 C 163.833 32.483,162.449 30.667,162.002 30.667 C 161.909 30.667,161.833 30.588,161.833 30.492 C 161.833 30.266,161.067 29.500,160.841 29.500 C 160.745 29.500,160.667 29.420,160.667 29.321 C 160.667 29.027,160.214 28.667,159.845 28.667 C 159.655 28.667,159.500 28.592,159.500 28.500 C 159.500 28.408,159.396 28.333,159.268 28.333 C 159.140 28.333,158.992 28.221,158.940 28.083 C 158.887 27.946,158.696 27.833,158.515 27.833 C 158.334 27.833,158.140 27.758,158.083 27.667 C 158.027 27.575,157.797 27.500,157.573 27.500 C 157.350 27.500,157.167 27.425,157.167 27.333 C 157.167 27.242,156.904 27.167,156.583 27.167 C 156.176 27.167,156.000 27.091,156.000 26.917 C 156.000 26.731,155.806 26.667,155.250 26.667 C 154.837 26.667,154.500 26.592,154.500 26.500 C 154.500 26.391,151.056 26.333,144.500 26.333 L 134.500 26.333 134.500 43.986 M212.333 44.083 L 212.333 61.833 216.583 61.833 L 220.833 61.833 220.833 57.167 L 220.833 52.500 224.333 52.500 C 227.333 52.500,227.833 52.464,227.833 52.250 C 227.833 52.041,228.185 52.000,230.000 52.000 C 231.333 52.000,232.167 51.936,232.167 51.833 C 232.167 51.742,232.542 51.667,233.000 51.667 C 233.458 51.667,233.833 51.592,233.833 51.500 C 233.833 51.408,234.096 51.333,234.417 51.333 C 234.824 51.333,235.000 51.258,235.000 51.083 C 235.000 50.918,235.166 50.833,235.490 50.833 C 235.760 50.833,236.027 50.758,236.083 50.667 C 236.140 50.575,236.332 50.500,236.510 50.500 C 236.688 50.500,236.833 50.425,236.833 50.333 C 236.833 50.242,236.946 50.167,237.083 50.167 C 237.221 50.167,237.333 50.054,237.333 49.917 C 237.333 49.779,237.472 49.667,237.642 49.667 C 237.812 49.667,238.204 49.423,238.514 49.125 C 238.824 48.827,239.227 48.507,239.410 48.413 C 239.594 48.320,239.820 48.094,239.913 47.910 C 240.007 47.727,240.327 47.324,240.625 47.014 C 240.923 46.704,241.167 46.312,241.167 46.142 C 241.167 45.972,241.279 45.833,241.417 45.833 C 241.572 45.833,241.667 45.676,241.667 45.417 C 241.667 45.188,241.742 45.000,241.833 45.000 C 241.925 45.000,242.000 44.854,242.000 44.677 C 242.000 44.499,242.075 44.307,242.167 44.250 C 242.258 44.193,242.333 43.921,242.333 43.645 C 242.333 43.369,242.446 43.030,242.583 42.893 C 242.760 42.716,242.833 42.284,242.833 41.415 C 242.833 40.739,242.908 40.140,243.000 40.083 C 243.092 40.027,243.167 39.652,243.167 39.250 C 243.167 38.848,243.092 38.473,243.000 38.417 C 242.908 38.360,242.833 37.723,242.833 37.002 C 242.833 36.058,242.763 35.620,242.583 35.440 C 242.446 35.303,242.333 34.960,242.333 34.679 C 242.333 34.397,242.258 34.167,242.167 34.167 C 242.075 34.167,242.000 33.979,242.000 33.750 C 242.000 33.521,241.925 33.333,241.833 33.333 C 241.742 33.333,241.667 33.191,241.667 33.018 C 241.667 32.844,241.554 32.659,241.417 32.606 C 241.279 32.554,241.167 32.358,241.167 32.172 C 241.167 31.986,241.104 31.833,241.028 31.833 C 240.952 31.833,240.789 31.646,240.667 31.417 C 240.544 31.188,240.344 31.000,240.222 31.000 C 240.100 31.000,240.000 30.944,240.000 30.875 C 240.000 30.706,239.241 29.833,239.094 29.833 C 239.030 29.833,238.730 29.571,238.427 29.250 C 238.125 28.929,237.755 28.667,237.605 28.667 C 237.456 28.667,237.333 28.592,237.333 28.500 C 237.333 28.408,237.230 28.333,237.104 28.333 C 236.977 28.333,236.787 28.228,236.680 28.100 C 236.574 27.971,236.152 27.767,235.743 27.647 C 235.334 27.526,235.000 27.369,235.000 27.297 C 235.000 27.225,234.746 27.167,234.434 27.167 C 234.086 27.167,233.832 27.071,233.773 26.917 C 233.707 26.745,233.439 26.667,232.922 26.667 C 232.507 26.667,232.167 26.592,232.167 26.500 C 232.167 26.391,228.750 26.333,222.250 26.333 L 212.333 26.333 212.333 44.083 M245.500 44.083 L 245.500 61.833 259.167 61.833 L 272.833 61.833 272.833 58.333 L 272.833 54.833 263.500 54.833 L 254.167 54.833 254.167 51.083 L 254.167 47.333 262.167 47.333 L 270.167 47.333 270.167 43.833 L 270.167 40.333 262.167 40.333 L 254.167 40.333 254.167 36.833 L 254.167 33.333 263.333 33.333 L 272.500 33.333 272.500 29.833 L 272.500 26.333 259.000 26.333 L 245.500 26.333 245.500 44.083 M276.000 44.083 L 276.000 61.833 280.250 61.833 L 284.500 61.833 284.500 57.167 L 284.500 52.500 288.012 52.500 C 291.684 52.500,292.000 52.559,292.000 53.250 C 292.000 53.559,292.385 54.000,292.655 54.000 C 292.753 54.000,292.833 54.171,292.833 54.380 C 292.833 54.589,292.983 54.868,293.167 55.000 C 293.350 55.132,293.500 55.333,293.500 55.446 C 293.500 55.559,293.688 55.839,293.917 56.068 C 294.146 56.297,294.336 56.582,294.339 56.701 C 294.346 56.999,294.746 57.500,294.977 57.500 C 295.081 57.500,295.167 57.650,295.167 57.833 C 295.167 58.017,295.242 58.167,295.333 58.167 C 295.425 58.167,295.500 58.245,295.500 58.341 C 295.500 58.436,295.688 58.717,295.917 58.964 C 296.146 59.211,296.333 59.508,296.333 59.623 C 296.333 59.739,296.408 59.833,296.500 59.833 C 296.592 59.833,296.667 59.946,296.667 60.083 C 296.667 60.221,296.742 60.333,296.833 60.333 C 296.925 60.333,297.000 60.448,297.000 60.589 C 297.000 60.729,297.112 60.887,297.250 60.940 C 297.387 60.992,297.500 61.108,297.500 61.196 C 297.500 61.783,297.902 61.833,302.571 61.833 L 307.167 61.833 307.167 61.417 C 307.167 61.188,307.092 61.000,307.000 61.000 C 306.908 61.000,306.833 60.850,306.833 60.667 C 306.833 60.483,306.758 60.333,306.667 60.333 C 306.575 60.333,306.500 60.221,306.500 60.083 C 306.500 59.946,306.387 59.833,306.250 59.833 C 306.111 59.833,306.000 59.685,306.000 59.500 C 306.000 59.317,305.925 59.167,305.833 59.167 C 305.742 59.167,305.667 59.086,305.667 58.988 C 305.667 58.890,305.573 58.705,305.458 58.577 C 304.964 58.026,304.833 57.837,304.833 57.674 C 304.833 57.578,304.758 57.500,304.667 57.500 C 304.575 57.500,304.500 57.398,304.500 57.274 C 304.500 57.150,304.331 56.865,304.125 56.640 C 303.919 56.416,303.637 56.011,303.500 55.741 C 303.195 55.142,302.916 54.833,302.679 54.833 C 302.580 54.833,302.500 54.680,302.500 54.492 C 302.500 54.305,302.313 53.964,302.083 53.735 C 301.854 53.506,301.667 53.226,301.667 53.113 C 301.667 52.999,301.517 52.799,301.333 52.667 C 301.150 52.535,301.000 52.298,301.000 52.142 C 301.000 51.986,300.813 51.710,300.583 51.530 C 300.354 51.350,300.167 51.088,300.167 50.948 C 300.167 50.809,300.073 50.657,299.958 50.610 C 299.844 50.564,299.919 50.520,300.125 50.513 C 300.331 50.506,300.500 50.434,300.500 50.353 C 300.500 50.272,300.631 50.161,300.792 50.108 C 301.175 49.979,301.683 49.647,301.998 49.322 C 302.136 49.178,302.381 49.012,302.542 48.952 C 302.702 48.892,302.833 48.766,302.833 48.672 C 302.833 48.577,302.914 48.500,303.012 48.500 C 303.203 48.500,303.667 48.091,303.667 47.922 C 303.667 47.808,303.893 47.521,304.458 46.916 C 304.665 46.696,304.833 46.362,304.833 46.174 C 304.833 45.982,304.943 45.833,305.083 45.833 C 305.221 45.833,305.333 45.688,305.333 45.510 C 305.333 45.332,305.408 45.140,305.500 45.083 C 305.592 45.027,305.667 44.835,305.667 44.657 C 305.667 44.479,305.742 44.333,305.833 44.333 C 305.925 44.333,306.000 44.080,306.000 43.770 C 306.000 43.461,306.112 43.114,306.250 43.000 C 306.431 42.850,306.500 42.454,306.500 41.573 C 306.500 40.902,306.575 40.307,306.667 40.250 C 306.758 40.193,306.833 39.776,306.833 39.323 C 306.833 38.871,306.758 38.500,306.667 38.500 C 306.569 38.500,306.500 37.923,306.500 37.104 C 306.500 36.066,306.436 35.654,306.250 35.500 C 306.112 35.386,306.000 35.039,306.000 34.730 C 306.000 34.420,305.925 34.167,305.833 34.167 C 305.742 34.167,305.667 33.979,305.667 33.750 C 305.667 33.521,305.592 33.333,305.500 33.333 C 305.408 33.333,305.333 33.191,305.333 33.018 C 305.333 32.844,305.221 32.659,305.083 32.606 C 304.946 32.554,304.833 32.358,304.833 32.172 C 304.833 31.986,304.771 31.833,304.695 31.833 C 304.619 31.833,304.456 31.646,304.333 31.417 C 304.211 31.188,304.043 31.000,303.960 31.000 C 303.788 31.000,303.333 30.577,303.333 30.417 C 303.333 30.278,302.889 29.833,302.751 29.833 C 302.692 29.833,302.397 29.571,302.094 29.250 C 301.792 28.929,301.422 28.667,301.272 28.667 C 301.122 28.667,301.000 28.592,301.000 28.500 C 301.000 28.408,300.897 28.333,300.770 28.333 C 300.644 28.333,300.454 28.228,300.347 28.100 C 300.240 27.971,299.819 27.767,299.410 27.647 C 299.001 27.526,298.667 27.369,298.667 27.297 C 298.667 27.225,298.412 27.167,298.101 27.167 C 297.752 27.167,297.499 27.071,297.440 26.917 C 297.374 26.745,297.106 26.667,296.589 26.667 C 296.173 26.667,295.833 26.592,295.833 26.500 C 295.833 26.391,292.417 26.333,285.917 26.333 L 276.000 26.333 276.000 44.083 M305.667 29.833 L 305.667 33.333 311.167 33.333 L 316.667 33.333 316.667 47.583 L 316.667 61.833 321.167 61.833 L 325.667 61.833 325.667 47.583 L 325.667 33.333 330.917 33.333 C 335.805 33.333,336.167 33.353,336.167 33.625 C 336.167 33.785,336.354 34.135,336.584 34.401 C 336.813 34.667,337.000 34.986,337.000 35.109 C 337.000 35.232,337.075 35.333,337.167 35.333 C 337.258 35.333,337.333 35.483,337.333 35.667 C 337.333 35.850,337.408 36.000,337.500 36.000 C 337.592 36.000,337.667 36.104,337.667 36.232 C 337.667 36.360,337.779 36.508,337.917 36.560 C 338.054 36.613,338.167 36.809,338.167 36.995 C 338.167 37.181,338.242 37.333,338.333 37.333 C 338.425 37.333,338.500 37.483,338.500 37.667 C 338.500 37.850,338.575 38.000,338.667 38.000 C 338.758 38.000,338.833 38.095,338.833 38.210 C 338.833 38.326,339.021 38.622,339.250 38.869 C 339.479 39.117,339.667 39.472,339.667 39.659 C 339.667 39.847,339.742 40.000,339.833 40.000 C 339.925 40.000,340.000 40.115,340.000 40.255 C 340.000 40.396,340.112 40.554,340.250 40.606 C 340.387 40.659,340.500 40.807,340.500 40.934 C 340.500 41.062,340.575 41.167,340.667 41.167 C 340.758 41.167,340.833 41.268,340.833 41.391 C 340.833 41.725,341.334 42.667,341.512 42.667 C 341.597 42.667,341.667 42.779,341.667 42.917 C 341.667 43.054,341.742 43.167,341.833 43.167 C 341.925 43.167,342.000 43.317,342.000 43.500 C 342.000 43.683,342.075 43.833,342.167 43.833 C 342.258 43.833,342.333 43.986,342.333 44.172 C 342.333 44.358,342.433 44.549,342.555 44.596 C 342.677 44.642,342.878 44.940,343.003 45.257 C 343.127 45.574,343.290 45.833,343.364 45.833 C 343.439 45.833,343.500 45.986,343.500 46.172 C 343.500 46.358,343.613 46.554,343.750 46.606 C 343.887 46.659,344.000 46.844,344.000 47.018 C 344.000 47.191,344.075 47.333,344.167 47.333 C 344.258 47.333,344.333 47.446,344.333 47.583 C 344.333 47.721,344.408 47.833,344.500 47.833 C 344.592 47.833,344.667 47.983,344.667 48.167 C 344.667 48.352,344.778 48.500,344.917 48.500 C 345.072 48.500,345.167 48.657,345.167 48.917 C 345.167 49.146,345.242 49.333,345.333 49.333 C 345.441 49.333,345.500 51.528,345.500 55.583 L 345.500 61.833 349.833 61.833 L 354.167 61.833 354.167 55.660 C 354.167 49.716,354.179 49.473,354.500 49.128 C 354.683 48.931,354.833 48.643,354.833 48.486 C 354.833 48.330,354.946 48.159,355.083 48.106 C 355.221 48.054,355.333 47.892,355.333 47.748 C 355.333 47.604,355.483 47.325,355.667 47.128 C 355.850 46.931,356.000 46.635,356.000 46.469 C 356.000 46.303,356.113 46.167,356.250 46.167 C 356.389 46.167,356.500 46.019,356.500 45.833 C 356.500 45.650,356.561 45.500,356.636 45.500 C 356.710 45.500,356.873 45.241,356.997 44.924 C 357.122 44.607,357.323 44.309,357.445 44.262 C 357.567 44.215,357.667 44.025,357.667 43.839 C 357.667 43.652,357.742 43.500,357.833 43.500 C 357.925 43.500,358.000 43.358,358.000 43.184 C 358.000 43.010,358.186 42.692,358.414 42.476 C 358.641 42.260,358.829 41.952,358.830 41.792 C 358.832 41.631,358.908 41.500,359.000 41.500 C 359.092 41.500,359.167 41.350,359.167 41.167 C 359.167 40.983,359.242 40.833,359.333 40.833 C 359.425 40.833,359.500 40.721,359.500 40.583 C 359.500 40.446,359.570 40.333,359.654 40.333 C 359.832 40.333,360.333 39.392,360.333 39.058 C 360.333 38.934,360.408 38.833,360.500 38.833 C 360.592 38.833,360.667 38.753,360.667 38.655 C 360.667 38.557,360.760 38.372,360.875 38.244 C 361.407 37.651,361.500 37.491,361.500 37.174 C 361.500 36.986,361.575 36.833,361.667 36.833 C 361.758 36.833,361.833 36.718,361.833 36.578 C 361.833 36.438,361.946 36.280,362.083 36.227 C 362.221 36.174,362.333 36.027,362.333 35.899 C 362.333 35.771,362.408 35.667,362.500 35.667 C 362.592 35.667,362.667 35.479,362.667 35.250 C 362.667 34.991,362.761 34.833,362.917 34.833 C 363.056 34.833,363.167 34.685,363.167 34.500 C 363.167 34.317,363.242 34.167,363.333 34.167 C 363.425 34.167,363.500 34.054,363.500 33.917 C 363.500 33.779,363.575 33.667,363.667 33.667 C 363.758 33.667,363.833 33.525,363.833 33.351 C 363.833 33.178,363.946 32.992,364.083 32.940 C 364.221 32.887,364.333 32.691,364.333 32.505 C 364.333 32.319,364.408 32.167,364.500 32.167 C 364.592 32.167,364.667 32.054,364.667 31.917 C 364.667 31.779,364.742 31.667,364.833 31.667 C 364.925 31.667,365.000 31.525,365.000 31.351 C 365.000 31.178,365.113 30.992,365.250 30.940 C 365.387 30.887,365.500 30.691,365.500 30.505 C 365.500 30.319,365.561 30.167,365.636 30.167 C 365.710 30.167,365.873 29.907,365.997 29.590 C 366.122 29.273,366.323 28.976,366.445 28.929 C 366.567 28.882,366.667 28.729,366.667 28.589 C 366.667 28.448,366.742 28.333,366.833 28.333 C 366.925 28.333,367.000 28.180,367.000 27.993 C 367.000 27.805,367.181 27.457,367.402 27.218 C 368.190 26.368,368.026 26.333,363.232 26.333 C 360.292 26.333,358.833 26.391,358.833 26.507 C 358.833 26.671,358.703 26.859,358.208 27.411 C 358.094 27.538,358.000 27.798,358.000 27.988 C 358.000 28.178,357.925 28.333,357.833 28.333 C 357.742 28.333,357.667 28.428,357.667 28.543 C 357.667 28.659,357.479 28.956,357.250 29.203 C 357.021 29.450,356.833 29.763,356.833 29.900 C 356.833 30.036,356.758 30.193,356.667 30.250 C 356.575 30.307,356.500 30.499,356.500 30.677 C 356.500 30.854,356.387 31.000,356.250 31.000 C 356.113 31.000,356.000 31.113,356.000 31.250 C 356.000 31.387,355.925 31.500,355.833 31.500 C 355.742 31.500,355.667 31.650,355.667 31.833 C 355.667 32.017,355.592 32.167,355.500 32.167 C 355.408 32.167,355.333 32.354,355.333 32.583 C 355.333 32.816,355.237 33.000,355.114 33.000 C 354.994 33.000,354.793 33.262,354.667 33.583 C 354.541 33.904,354.377 34.167,354.302 34.167 C 354.228 34.167,354.167 34.354,354.167 34.583 C 354.167 34.843,354.072 35.000,353.917 35.000 C 353.778 35.000,353.667 35.148,353.667 35.333 C 353.667 35.517,353.592 35.667,353.500 35.667 C 353.408 35.667,353.333 35.779,353.333 35.917 C 353.333 36.054,353.258 36.167,353.167 36.167 C 353.075 36.167,353.000 36.317,353.000 36.500 C 353.000 36.685,352.889 36.833,352.750 36.833 C 352.609 36.833,352.500 36.982,352.500 37.174 C 352.500 37.361,352.350 37.675,352.167 37.872 C 351.983 38.069,351.833 38.365,351.833 38.531 C 351.833 38.697,351.721 38.833,351.583 38.833 C 351.428 38.833,351.333 38.991,351.333 39.250 C 351.333 39.479,351.258 39.667,351.167 39.667 C 351.075 39.667,351.000 39.779,351.000 39.917 C 351.000 40.054,350.925 40.167,350.833 40.167 C 350.742 40.167,350.667 40.317,350.667 40.500 C 350.667 40.744,350.556 40.833,350.250 40.833 C 349.997 40.833,349.833 40.738,349.833 40.591 C 349.833 40.458,349.646 40.161,349.417 39.932 C 349.188 39.703,349.000 39.362,349.000 39.174 C 349.000 38.987,348.925 38.833,348.833 38.833 C 348.742 38.833,348.667 38.694,348.667 38.523 C 348.667 38.353,348.479 38.073,348.250 37.900 C 348.021 37.728,347.833 37.418,347.833 37.210 C 347.833 37.003,347.758 36.833,347.667 36.833 C 347.575 36.833,347.500 36.683,347.500 36.500 C 347.500 36.315,347.389 36.167,347.250 36.167 C 347.111 36.167,347.000 36.019,347.000 35.833 C 347.000 35.650,346.925 35.500,346.833 35.500 C 346.742 35.500,346.667 35.387,346.667 35.250 C 346.667 35.112,346.592 35.000,346.500 35.000 C 346.408 35.000,346.333 34.813,346.333 34.583 C 346.333 34.324,346.239 34.167,346.083 34.167 C 345.946 34.167,345.833 34.031,345.833 33.865 C 345.833 33.699,345.683 33.402,345.500 33.205 C 345.317 33.008,345.167 32.729,345.167 32.585 C 345.167 32.441,345.054 32.280,344.917 32.227 C 344.779 32.174,344.667 31.989,344.667 31.816 C 344.667 31.642,344.592 31.500,344.500 31.500 C 344.408 31.500,344.333 31.387,344.333 31.250 C 344.333 31.113,344.258 31.000,344.167 31.000 C 344.075 31.000,344.000 30.848,344.000 30.661 C 344.000 30.475,343.887 30.280,343.750 30.227 C 343.613 30.174,343.500 29.989,343.500 29.816 C 343.500 29.642,343.439 29.500,343.364 29.500 C 343.290 29.500,343.126 29.238,343.000 28.917 C 342.874 28.596,342.673 28.333,342.552 28.333 C 342.430 28.333,342.333 28.150,342.333 27.917 C 342.333 27.688,342.258 27.500,342.167 27.500 C 342.075 27.500,342.000 27.350,342.000 27.167 C 342.000 26.983,341.925 26.833,341.833 26.833 C 341.742 26.833,341.667 26.721,341.667 26.583 C 341.667 26.363,339.556 26.333,323.667 26.333 L 305.667 26.333 305.667 29.833 M376.000 26.750 C 376.000 26.979,375.925 27.167,375.833 27.167 C 375.742 27.167,375.667 27.429,375.667 27.750 C 375.667 28.157,375.591 28.333,375.417 28.333 C 375.279 28.333,375.167 28.479,375.167 28.657 C 375.167 28.835,375.092 29.027,375.000 29.083 C 374.908 29.140,374.833 29.332,374.833 29.510 C 374.833 29.688,374.758 29.833,374.667 29.833 C 374.575 29.833,374.500 29.969,374.500 30.135 C 374.500 30.301,374.390 30.582,374.255 30.760 C 374.121 30.938,374.008 31.252,374.005 31.458 C 374.002 31.665,373.925 31.833,373.833 31.833 C 373.742 31.833,373.667 32.021,373.667 32.250 C 373.667 32.479,373.610 32.667,373.542 32.668 C 373.330 32.670,372.833 33.671,372.833 34.097 C 372.833 34.319,372.758 34.500,372.667 34.500 C 372.575 34.500,372.500 34.679,372.500 34.899 C 372.500 35.118,372.387 35.341,372.250 35.394 C 372.113 35.446,372.000 35.642,372.000 35.828 C 372.000 36.014,371.925 36.167,371.833 36.167 C 371.742 36.167,371.667 36.387,371.667 36.657 C 371.667 36.926,371.592 37.193,371.500 37.250 C 371.408 37.307,371.333 37.491,371.333 37.659 C 371.333 37.827,371.221 38.008,371.083 38.060 C 370.946 38.113,370.833 38.309,370.833 38.495 C 370.833 38.681,370.758 38.833,370.667 38.833 C 370.575 38.833,370.500 39.021,370.500 39.250 C 370.500 39.479,370.425 39.667,370.333 39.667 C 370.242 39.667,370.167 39.929,370.167 40.250 C 370.167 40.657,370.091 40.833,369.917 40.833 C 369.778 40.833,369.667 40.981,369.667 41.167 C 369.667 41.350,369.592 41.500,369.500 41.500 C 369.408 41.500,369.333 41.688,369.333 41.917 C 369.333 42.146,369.258 42.333,369.167 42.333 C 369.075 42.333,369.000 42.561,369.000 42.839 C 369.000 43.134,368.896 43.384,368.750 43.440 C 368.613 43.492,368.500 43.715,368.500 43.934 C 368.500 44.154,368.425 44.333,368.333 44.333 C 368.242 44.333,368.167 44.479,368.167 44.657 C 368.167 44.835,368.092 45.027,368.000 45.083 C 367.908 45.140,367.833 45.300,367.833 45.438 C 367.833 45.577,367.721 45.803,367.583 45.940 C 367.446 46.078,367.333 46.373,367.333 46.595 C 367.333 46.818,367.258 47.000,367.167 47.000 C 367.075 47.000,367.000 47.188,367.000 47.417 C 367.000 47.646,366.925 47.833,366.833 47.833 C 366.742 47.833,366.667 48.021,366.667 48.250 C 366.667 48.509,366.572 48.667,366.417 48.667 C 366.250 48.667,366.167 48.833,366.167 49.167 C 366.167 49.442,366.092 49.667,366.000 49.667 C 365.908 49.667,365.833 49.854,365.833 50.083 C 365.833 50.313,365.758 50.500,365.667 50.500 C 365.575 50.500,365.500 50.688,365.500 50.917 C 365.500 51.176,365.406 51.333,365.250 51.333 C 365.094 51.333,365.000 51.491,365.000 51.750 C 365.000 51.979,364.925 52.167,364.833 52.167 C 364.742 52.167,364.667 52.429,364.667 52.750 C 364.667 53.071,364.592 53.333,364.500 53.333 C 364.408 53.333,364.333 53.475,364.333 53.649 C 364.333 53.822,364.221 54.008,364.083 54.060 C 363.946 54.113,363.833 54.309,363.833 54.495 C 363.833 54.681,363.758 54.833,363.667 54.833 C 363.575 54.833,363.500 55.054,363.500 55.323 C 363.500 55.593,363.425 55.860,363.333 55.917 C 363.242 55.973,363.167 56.203,363.167 56.427 C 363.167 56.677,363.071 56.833,362.917 56.833 C 362.778 56.833,362.667 56.981,362.667 57.167 C 362.667 57.350,362.592 57.500,362.500 57.500 C 362.408 57.500,362.333 57.683,362.333 57.907 C 362.333 58.131,362.264 58.356,362.179 58.409 C 362.095 58.461,361.976 58.728,361.916 59.002 C 361.856 59.276,361.738 59.500,361.653 59.500 C 361.569 59.500,361.500 59.688,361.500 59.917 C 361.500 60.146,361.425 60.333,361.333 60.333 C 361.242 60.333,361.167 60.479,361.167 60.657 C 361.167 60.835,361.092 61.027,361.000 61.083 C 360.908 61.140,360.833 61.333,360.833 61.512 C 360.833 61.829,360.963 61.837,365.458 61.794 L 370.083 61.750 370.139 61.333 C 370.170 61.104,370.264 60.845,370.347 60.758 C 370.431 60.671,370.500 60.428,370.500 60.217 C 370.500 60.006,370.575 59.833,370.667 59.833 C 370.758 59.833,370.833 59.654,370.833 59.434 C 370.833 59.215,370.946 58.992,371.083 58.940 C 371.221 58.887,371.333 58.658,371.333 58.432 C 371.333 58.205,371.408 57.973,371.500 57.917 C 371.592 57.860,371.667 57.668,371.667 57.490 C 371.667 57.312,371.742 57.167,371.833 57.167 C 371.925 57.167,372.000 56.904,372.000 56.583 C 372.000 56.176,372.075 56.000,372.250 56.000 C 372.392 56.000,372.500 55.851,372.500 55.655 C 372.500 54.826,372.427 54.833,380.738 54.833 L 388.500 54.833 388.500 55.323 C 388.500 55.593,388.575 55.860,388.667 55.917 C 388.758 55.973,388.833 56.168,388.833 56.348 C 388.833 56.529,388.946 56.720,389.083 56.773 C 389.226 56.828,389.333 57.076,389.333 57.351 C 389.333 57.616,389.408 57.833,389.500 57.833 C 389.592 57.833,389.667 58.021,389.667 58.250 C 389.667 58.479,389.742 58.667,389.833 58.667 C 389.925 58.667,390.000 58.846,390.000 59.066 C 390.000 59.285,390.113 59.508,390.250 59.560 C 390.396 59.616,390.500 59.866,390.500 60.161 C 390.500 60.439,390.575 60.667,390.667 60.667 C 390.758 60.667,390.833 60.822,390.833 61.012 C 390.833 61.802,391.020 61.833,395.679 61.833 L 400.047 61.833 399.940 60.792 C 399.875 60.167,399.732 59.676,399.583 59.565 C 399.446 59.463,399.333 59.219,399.333 59.023 C 399.333 58.827,399.258 58.667,399.167 58.667 C 399.075 58.667,399.000 58.517,399.000 58.333 C 399.000 58.150,398.925 58.000,398.833 58.000 C 398.742 58.000,398.667 57.818,398.667 57.595 C 398.667 57.373,398.554 57.078,398.417 56.940 C 398.279 56.803,398.167 56.535,398.167 56.345 C 398.167 56.155,398.092 56.000,398.000 56.000 C 397.908 56.000,397.833 55.813,397.833 55.583 C 397.833 55.354,397.758 55.167,397.667 55.167 C 397.575 55.167,397.500 55.017,397.500 54.833 C 397.500 54.648,397.389 54.500,397.250 54.500 C 397.075 54.500,397.000 54.324,397.000 53.917 C 397.000 53.596,396.925 53.333,396.833 53.333 C 396.742 53.333,396.667 53.146,396.667 52.917 C 396.667 52.688,396.592 52.500,396.500 52.500 C 396.408 52.500,396.333 52.313,396.333 52.083 C 396.333 51.824,396.239 51.667,396.083 51.667 C 395.929 51.667,395.833 51.510,395.833 51.260 C 395.833 51.036,395.758 50.807,395.667 50.750 C 395.575 50.693,395.500 50.464,395.500 50.240 C 395.500 50.016,395.425 49.833,395.333 49.833 C 395.242 49.833,395.167 49.646,395.167 49.417 C 395.167 49.157,395.072 49.000,394.917 49.000 C 394.761 49.000,394.667 48.843,394.667 48.583 C 394.667 48.354,394.592 48.167,394.500 48.167 C 394.408 48.167,394.333 47.946,394.333 47.677 C 394.333 47.407,394.258 47.140,394.167 47.083 C 394.075 47.027,394.000 46.832,394.000 46.652 C 394.000 46.471,393.887 46.280,393.750 46.227 C 393.613 46.174,393.500 45.989,393.500 45.816 C 393.500 45.642,393.425 45.500,393.333 45.500 C 393.242 45.500,393.167 45.313,393.167 45.083 C 393.167 44.854,393.092 44.667,393.000 44.667 C 392.908 44.667,392.833 44.485,392.833 44.262 C 392.833 44.039,392.721 43.745,392.583 43.607 C 392.446 43.470,392.333 43.202,392.333 43.012 C 392.333 42.822,392.258 42.667,392.167 42.667 C 392.075 42.667,392.000 42.517,392.000 42.333 C 392.000 42.150,391.925 42.000,391.833 42.000 C 391.742 42.000,391.667 41.818,391.667 41.595 C 391.667 41.373,391.554 41.078,391.417 40.940 C 391.279 40.803,391.167 40.535,391.167 40.345 C 391.167 40.155,391.092 40.000,391.000 40.000 C 390.908 40.000,390.833 39.813,390.833 39.583 C 390.833 39.354,390.758 39.167,390.667 39.167 C 390.575 39.167,390.500 39.025,390.500 38.851 C 390.500 38.678,390.387 38.492,390.250 38.440 C 390.104 38.384,390.000 38.134,390.000 37.839 C 390.000 37.561,389.925 37.333,389.833 37.333 C 389.742 37.333,389.667 37.146,389.667 36.917 C 389.667 36.688,389.592 36.500,389.500 36.500 C 389.408 36.500,389.333 36.348,389.333 36.161 C 389.333 35.975,389.221 35.780,389.083 35.727 C 388.941 35.672,388.833 35.424,388.833 35.149 C 388.833 34.884,388.758 34.667,388.667 34.667 C 388.575 34.667,388.500 34.479,388.500 34.250 C 388.500 34.021,388.425 33.833,388.333 33.833 C 388.242 33.833,388.167 33.681,388.167 33.495 C 388.167 33.309,388.054 33.113,387.917 33.060 C 387.779 33.008,387.667 32.785,387.667 32.566 C 387.667 32.346,387.592 32.167,387.500 32.167 C 387.408 32.167,387.333 31.939,387.333 31.661 C 387.333 31.366,387.229 31.116,387.083 31.060 C 386.946 31.008,386.833 30.827,386.833 30.659 C 386.833 30.491,386.758 30.307,386.667 30.250 C 386.575 30.193,386.500 30.001,386.500 29.823 C 386.500 29.646,386.425 29.500,386.333 29.500 C 386.242 29.500,386.167 29.322,386.167 29.104 C 386.167 28.886,386.054 28.614,385.917 28.500 C 385.779 28.386,385.667 28.114,385.667 27.896 C 385.667 27.678,385.592 27.500,385.500 27.500 C 385.408 27.500,385.333 27.345,385.333 27.155 C 385.333 26.364,385.151 26.333,380.429 26.333 L 376.000 26.333 376.000 26.750 M116.000 33.500 C 116.000 33.592,116.292 33.667,116.649 33.667 C 117.072 33.667,117.331 33.754,117.394 33.917 C 117.446 34.054,117.642 34.167,117.828 34.167 C 118.014 34.167,118.167 34.242,118.167 34.333 C 118.167 34.425,118.279 34.500,118.417 34.500 C 118.554 34.500,118.667 34.575,118.667 34.667 C 118.667 34.758,118.803 34.833,118.969 34.833 C 119.159 34.833,119.355 35.047,119.497 35.410 C 119.622 35.727,119.823 36.024,119.945 36.071 C 120.067 36.118,120.167 36.309,120.167 36.495 C 120.167 36.681,120.242 36.833,120.333 36.833 C 120.425 36.833,120.500 37.096,120.500 37.417 C 120.500 37.737,120.575 38.000,120.667 38.000 C 120.762 38.000,120.833 38.497,120.833 39.157 C 120.833 39.793,120.758 40.360,120.667 40.417 C 120.575 40.473,120.500 40.736,120.500 41.000 C 120.500 41.264,120.425 41.527,120.333 41.583 C 120.242 41.640,120.167 41.832,120.167 42.010 C 120.167 42.188,120.095 42.333,120.008 42.333 C 119.920 42.333,119.724 42.596,119.572 42.917 C 119.400 43.279,119.176 43.500,118.981 43.500 C 118.808 43.500,118.667 43.575,118.667 43.667 C 118.667 43.758,118.554 43.833,118.417 43.833 C 118.279 43.833,118.167 43.946,118.167 44.083 C 118.167 44.239,118.009 44.333,117.750 44.333 C 117.521 44.333,117.333 44.408,117.333 44.500 C 117.333 44.592,117.075 44.667,116.760 44.667 C 116.444 44.667,116.140 44.742,116.083 44.833 C 116.019 44.937,114.415 45.000,111.823 45.000 L 107.667 45.000 107.667 39.167 L 107.667 33.333 111.833 33.333 C 114.500 33.333,116.000 33.393,116.000 33.500 M151.750 33.500 C 151.807 33.592,152.111 33.667,152.427 33.667 C 152.825 33.667,153.000 33.743,153.000 33.917 C 153.000 34.056,153.148 34.167,153.333 34.167 C 153.517 34.167,153.667 34.242,153.667 34.333 C 153.667 34.425,153.779 34.500,153.917 34.500 C 154.054 34.500,154.167 34.575,154.167 34.667 C 154.167 34.758,154.317 34.833,154.500 34.833 C 154.683 34.833,154.833 34.938,154.833 35.066 C 154.833 35.193,154.946 35.341,155.083 35.394 C 155.221 35.446,155.333 35.604,155.333 35.745 C 155.333 35.885,155.408 36.000,155.500 36.000 C 155.592 36.000,155.667 36.188,155.667 36.417 C 155.667 36.646,155.742 36.833,155.833 36.833 C 155.925 36.833,156.000 37.061,156.000 37.339 C 156.000 37.634,156.104 37.884,156.250 37.940 C 156.438 38.012,156.500 38.315,156.500 39.167 C 156.500 40.018,156.438 40.321,156.250 40.394 C 156.105 40.449,156.000 40.698,156.000 40.985 C 156.000 41.257,155.925 41.527,155.833 41.583 C 155.742 41.640,155.667 41.832,155.667 42.010 C 155.667 42.188,155.592 42.333,155.500 42.333 C 155.408 42.333,155.333 42.408,155.333 42.499 C 155.333 42.723,154.646 43.500,154.447 43.500 C 154.360 43.500,154.114 43.688,153.902 43.917 C 153.690 44.146,153.400 44.333,153.258 44.333 C 153.116 44.333,153.000 44.400,153.000 44.482 C 153.000 44.758,151.606 44.872,147.375 44.942 L 143.167 45.011 143.167 39.172 L 143.167 33.333 147.407 33.333 C 150.054 33.333,151.686 33.396,151.750 33.500 M229.250 33.500 C 229.307 33.592,229.649 33.667,230.010 33.667 C 230.483 33.667,230.667 33.737,230.667 33.917 C 230.667 34.066,230.820 34.167,231.047 34.167 C 231.255 34.167,231.535 34.317,231.667 34.500 C 231.799 34.683,232.064 34.833,232.256 34.833 C 232.500 34.833,232.673 35.009,232.833 35.417 C 232.959 35.737,233.115 36.000,233.180 36.000 C 233.244 36.000,233.344 36.188,233.402 36.417 C 233.459 36.646,233.580 36.833,233.670 36.833 C 233.760 36.833,233.833 37.096,233.833 37.417 C 233.833 37.737,233.908 38.000,234.000 38.000 C 234.095 38.000,234.167 38.497,234.167 39.157 C 234.167 39.793,234.092 40.360,234.000 40.417 C 233.908 40.473,233.833 40.697,233.833 40.913 C 233.833 41.331,233.335 42.331,233.125 42.332 C 233.056 42.333,232.998 42.465,232.995 42.625 C 232.988 43.007,232.608 43.499,232.315 43.505 C 232.004 43.512,231.500 43.907,231.500 44.143 C 231.500 44.248,231.313 44.333,231.083 44.333 C 230.854 44.333,230.667 44.408,230.667 44.500 C 230.667 44.592,230.409 44.667,230.093 44.667 C 229.778 44.667,229.473 44.742,229.417 44.833 C 229.352 44.937,227.720 45.000,225.073 45.000 L 220.833 45.000 220.833 39.167 L 220.833 33.333 224.990 33.333 C 227.582 33.333,229.186 33.396,229.250 33.500 M293.083 33.500 C 293.140 33.592,293.444 33.667,293.760 33.667 C 294.159 33.667,294.333 33.743,294.333 33.917 C 294.333 34.057,294.482 34.167,294.674 34.167 C 294.861 34.167,295.175 34.317,295.372 34.500 C 295.569 34.683,295.851 34.833,296.000 34.833 C 296.155 34.833,296.369 35.083,296.500 35.417 C 296.626 35.737,296.782 36.000,296.846 36.000 C 296.911 36.000,297.011 36.188,297.068 36.417 C 297.126 36.646,297.247 36.833,297.337 36.833 C 297.426 36.833,297.500 37.096,297.500 37.417 C 297.500 37.737,297.575 38.000,297.667 38.000 C 297.762 38.000,297.833 38.500,297.833 39.167 C 297.833 39.833,297.762 40.333,297.667 40.333 C 297.575 40.333,297.500 40.561,297.500 40.839 C 297.500 41.265,297.165 42.021,296.837 42.333 C 296.789 42.379,296.641 42.626,296.509 42.882 C 296.377 43.139,296.021 43.466,295.718 43.610 C 295.415 43.754,295.167 43.975,295.167 44.102 C 295.167 44.238,294.994 44.333,294.750 44.333 C 294.521 44.333,294.333 44.408,294.333 44.500 C 294.333 44.592,294.075 44.667,293.760 44.667 C 293.444 44.667,293.140 44.742,293.083 44.833 C 293.019 44.937,291.387 45.000,288.740 45.000 L 284.500 45.000 284.500 39.167 L 284.500 33.333 288.740 33.333 C 291.387 33.333,293.019 33.396,293.083 33.500 M190.833 33.917 C 190.833 34.091,191.009 34.167,191.417 34.167 C 191.737 34.167,192.000 34.242,192.000 34.333 C 192.000 34.425,192.188 34.500,192.417 34.500 C 192.646 34.500,192.833 34.575,192.833 34.667 C 192.833 34.758,192.983 34.833,193.167 34.833 C 193.352 34.833,193.500 34.944,193.500 35.083 C 193.500 35.221,193.612 35.333,193.750 35.333 C 193.887 35.333,194.000 35.408,194.000 35.500 C 194.000 35.592,194.099 35.667,194.220 35.667 C 194.560 35.667,196.333 37.479,196.333 37.826 C 196.333 37.922,196.394 38.000,196.469 38.000 C 196.543 38.000,196.707 38.262,196.833 38.583 C 196.959 38.904,197.161 39.167,197.281 39.167 C 197.420 39.167,197.500 39.379,197.500 39.750 C 197.500 40.071,197.575 40.333,197.667 40.333 C 197.758 40.333,197.833 40.596,197.833 40.917 C 197.833 41.237,197.908 41.500,198.000 41.500 C 198.104 41.500,198.167 42.472,198.167 44.083 C 198.167 45.694,198.104 46.667,198.000 46.667 C 197.908 46.667,197.833 46.929,197.833 47.250 C 197.833 47.571,197.758 47.833,197.667 47.833 C 197.575 47.833,197.500 48.096,197.500 48.417 C 197.500 48.787,197.420 49.000,197.281 49.000 C 197.161 49.000,196.959 49.262,196.833 49.583 C 196.707 49.904,196.543 50.167,196.469 50.167 C 196.394 50.167,196.333 50.245,196.333 50.340 C 196.333 50.688,194.560 52.500,194.220 52.500 C 194.099 52.500,194.000 52.575,194.000 52.667 C 194.000 52.758,193.887 52.833,193.750 52.833 C 193.612 52.833,193.500 52.946,193.500 53.083 C 193.500 53.222,193.352 53.333,193.167 53.333 C 192.983 53.333,192.833 53.408,192.833 53.500 C 192.833 53.592,192.646 53.667,192.417 53.667 C 192.188 53.667,192.000 53.742,192.000 53.833 C 192.000 53.925,191.737 54.000,191.417 54.000 C 191.009 54.000,190.833 54.075,190.833 54.250 C 190.833 54.462,190.419 54.500,188.101 54.500 C 185.826 54.500,185.353 54.458,185.273 54.250 C 185.217 54.104,184.967 54.000,184.672 54.000 C 184.394 54.000,184.167 53.925,184.167 53.833 C 184.167 53.742,183.979 53.667,183.750 53.667 C 183.521 53.667,183.333 53.592,183.333 53.500 C 183.333 53.408,183.191 53.333,183.018 53.333 C 182.844 53.333,182.659 53.221,182.606 53.083 C 182.554 52.946,182.375 52.833,182.209 52.833 C 182.043 52.833,181.799 52.683,181.667 52.500 C 181.535 52.317,181.330 52.167,181.213 52.167 C 181.096 52.167,181.000 52.088,181.000 51.992 C 181.000 51.766,180.234 51.000,180.008 51.000 C 179.912 51.000,179.833 50.887,179.833 50.750 C 179.833 50.612,179.772 50.500,179.698 50.500 C 179.623 50.500,179.459 50.237,179.333 49.917 C 179.207 49.596,179.006 49.333,178.886 49.333 C 178.763 49.333,178.667 49.150,178.667 48.917 C 178.667 48.688,178.592 48.500,178.500 48.500 C 178.408 48.500,178.333 48.279,178.333 48.010 C 178.333 47.740,178.258 47.473,178.167 47.417 C 178.075 47.360,178.000 47.016,178.000 46.652 C 178.000 46.217,177.914 45.957,177.750 45.894 C 177.550 45.817,177.500 45.453,177.500 44.083 C 177.500 42.713,177.550 42.350,177.750 42.273 C 177.914 42.210,178.000 41.950,178.000 41.515 C 178.000 41.151,178.075 40.807,178.167 40.750 C 178.258 40.693,178.333 40.426,178.333 40.157 C 178.333 39.887,178.408 39.667,178.500 39.667 C 178.592 39.667,178.667 39.479,178.667 39.250 C 178.667 39.021,178.761 38.833,178.876 38.833 C 178.991 38.833,179.193 38.590,179.325 38.292 C 179.610 37.645,181.905 35.333,182.261 35.333 C 182.398 35.333,182.554 35.221,182.606 35.083 C 182.659 34.946,182.844 34.833,183.018 34.833 C 183.191 34.833,183.333 34.758,183.333 34.667 C 183.333 34.575,183.521 34.500,183.750 34.500 C 183.979 34.500,184.167 34.425,184.167 34.333 C 184.167 34.242,184.394 34.167,184.672 34.167 C 184.967 34.167,185.217 34.063,185.273 33.917 C 185.353 33.709,185.826 33.667,188.101 33.667 C 190.419 33.667,190.833 33.705,190.833 33.917 M380.792 36.451 C 380.906 36.698,381.000 37.037,381.000 37.205 C 381.000 37.373,381.113 37.554,381.250 37.606 C 381.387 37.659,381.500 37.882,381.500 38.101 C 381.500 38.321,381.575 38.500,381.667 38.500 C 381.758 38.500,381.833 38.725,381.833 39.000 C 381.833 39.275,381.908 39.500,382.000 39.500 C 382.092 39.500,382.167 39.688,382.167 39.917 C 382.167 40.176,382.261 40.333,382.417 40.333 C 382.591 40.333,382.667 40.509,382.667 40.917 C 382.667 41.237,382.742 41.500,382.833 41.500 C 382.925 41.500,383.000 41.688,383.000 41.917 C 383.000 42.146,383.075 42.333,383.167 42.333 C 383.258 42.333,383.333 42.515,383.333 42.738 C 383.333 42.961,383.446 43.255,383.583 43.393 C 383.721 43.530,383.833 43.798,383.833 43.988 C 383.833 44.178,383.908 44.333,384.000 44.333 C 384.092 44.333,384.167 44.516,384.167 44.740 C 384.167 44.964,384.242 45.193,384.333 45.250 C 384.425 45.307,384.500 45.501,384.500 45.682 C 384.500 45.863,384.613 46.054,384.750 46.106 C 384.891 46.160,385.000 46.409,385.000 46.675 C 385.000 46.934,385.075 47.193,385.167 47.250 C 385.979 47.752,385.327 47.833,380.500 47.833 C 376.048 47.833,375.271 47.764,375.833 47.417 C 375.925 47.360,376.000 47.168,376.000 46.990 C 376.000 46.812,376.075 46.667,376.167 46.667 C 376.258 46.667,376.333 46.474,376.333 46.238 C 376.333 46.002,376.446 45.697,376.583 45.560 C 376.721 45.422,376.833 45.165,376.833 44.988 C 376.833 44.811,376.908 44.667,377.000 44.667 C 377.092 44.667,377.167 44.484,377.167 44.260 C 377.167 44.036,377.242 43.807,377.333 43.750 C 377.425 43.693,377.500 43.434,377.500 43.175 C 377.500 42.909,377.609 42.660,377.750 42.606 C 377.887 42.554,378.000 42.358,378.000 42.172 C 378.000 41.986,378.075 41.833,378.167 41.833 C 378.258 41.833,378.333 41.608,378.333 41.333 C 378.333 41.058,378.408 40.833,378.500 40.833 C 378.592 40.833,378.667 40.678,378.667 40.488 C 378.667 40.298,378.779 40.030,378.917 39.893 C 379.054 39.755,379.167 39.461,379.167 39.238 C 379.167 39.015,379.242 38.833,379.333 38.833 C 379.425 38.833,379.500 38.646,379.500 38.417 C 379.500 38.188,379.575 38.000,379.667 38.000 C 379.758 38.000,379.833 37.737,379.833 37.417 C 379.833 37.009,379.909 36.833,380.083 36.833 C 380.239 36.833,380.333 36.676,380.333 36.417 C 380.333 35.874,380.530 35.888,380.792 36.451 M34.250 39.000 C 34.193 39.092,33.964 39.167,33.740 39.167 C 33.516 39.167,33.333 39.242,33.333 39.333 C 33.333 39.425,33.189 39.500,33.014 39.500 C 32.838 39.500,32.481 39.606,32.222 39.735 C 31.962 39.864,31.525 40.060,31.250 40.171 C 30.975 40.282,30.620 40.438,30.461 40.519 C 30.301 40.600,30.020 40.667,29.836 40.667 C 29.651 40.667,29.500 40.705,29.500 40.752 C 29.500 40.883,29.892 41.544,30.115 41.787 C 30.223 41.906,30.745 42.621,31.273 43.376 C 31.801 44.132,32.281 44.788,32.338 44.833 C 32.395 44.879,32.584 45.160,32.757 45.458 C 32.930 45.756,33.131 46.000,33.203 46.000 C 33.275 46.000,33.333 46.082,33.333 46.182 C 33.333 46.282,33.596 46.670,33.917 47.045 C 34.237 47.420,34.500 47.791,34.500 47.871 C 34.500 47.950,34.680 48.209,34.901 48.447 C 35.121 48.684,35.402 49.071,35.526 49.305 C 35.649 49.540,35.919 49.916,36.125 50.140 C 36.331 50.365,36.500 50.644,36.500 50.760 C 36.500 50.877,36.563 50.997,36.641 51.028 C 36.718 51.058,37.073 51.496,37.430 52.000 C 37.786 52.504,38.173 53.016,38.289 53.137 C 38.405 53.258,38.500 53.408,38.500 53.470 C 38.500 53.532,38.688 53.801,38.917 54.068 C 39.146 54.334,39.333 54.596,39.334 54.651 C 39.334 54.705,39.511 54.956,39.728 55.208 C 40.114 55.657,41.000 55.860,41.000 55.500 C 41.000 55.408,41.141 55.333,41.313 55.333 C 41.485 55.333,41.719 55.221,41.833 55.083 C 41.947 54.946,42.145 54.833,42.273 54.833 C 42.509 54.833,42.640 54.778,43.667 54.244 C 43.987 54.078,44.381 53.879,44.542 53.804 C 44.702 53.728,44.982 53.592,45.164 53.500 C 45.346 53.408,45.613 53.333,45.756 53.333 C 46.024 53.333,45.590 52.643,44.708 51.668 C 44.502 51.440,44.333 51.175,44.333 51.080 C 44.333 50.985,44.183 50.799,44.000 50.667 C 43.817 50.535,43.667 50.365,43.667 50.290 C 43.667 49.728,43.066 49.535,42.849 50.026 C 42.706 50.347,42.400 50.627,42.020 50.785 C 41.688 50.922,41.004 51.222,40.500 51.452 C 38.945 52.161,38.890 52.173,38.554 51.865 C 38.122 51.470,37.333 50.388,37.333 50.192 C 37.333 50.102,37.273 50.003,37.199 49.972 C 37.006 49.893,34.667 46.553,34.667 46.358 C 34.667 46.268,34.606 46.169,34.531 46.139 C 33.891 45.876,32.958 44.084,33.223 43.623 C 33.375 43.357,33.500 42.995,33.500 42.818 C 33.500 42.640,33.566 42.365,33.647 42.206 C 33.727 42.047,33.925 41.504,34.086 41.000 C 34.248 40.496,34.444 40.012,34.523 39.925 C 34.717 39.711,34.706 38.833,34.510 38.833 C 34.424 38.833,34.307 38.908,34.250 39.000 " stroke="none" fill="#040404" fill-rule="evenodd"></path><path id="path3" d="M41.637 10.292 C 40.619 11.388,40.497 14.119,41.394 15.741 C 41.656 16.215,43.416 18.262,44.329 19.155 L 45.083 19.892 45.186 17.905 C 45.312 15.457,45.284 15.612,45.583 15.727 C 45.721 15.780,45.833 15.750,45.833 15.661 C 45.833 15.573,45.767 15.500,45.686 15.500 C 45.604 15.500,45.415 15.241,45.265 14.924 C 45.114 14.607,44.918 14.302,44.829 14.247 C 44.740 14.192,44.667 13.631,44.667 13.000 C 44.667 12.369,44.592 11.807,44.500 11.750 C 44.408 11.693,44.333 11.504,44.333 11.329 C 44.333 10.183,42.421 9.447,41.637 10.292 M33.000 33.500 C 32.771 33.573,32.269 33.641,31.885 33.650 C 31.501 33.659,31.140 33.742,31.083 33.833 C 31.027 33.925,30.818 34.000,30.619 34.000 C 30.009 34.000,27.675 34.914,26.249 35.710 C 24.388 36.751,22.363 38.585,21.390 40.114 C 21.226 40.372,21.048 40.621,20.996 40.667 C 20.829 40.812,20.000 42.666,20.000 42.893 C 20.000 43.013,19.945 43.166,19.878 43.234 C 19.228 43.883,19.214 49.510,19.860 50.242 C 19.937 50.329,20.000 50.527,20.000 50.683 C 20.000 50.951,21.132 53.323,21.345 53.500 C 21.400 53.546,21.530 53.733,21.634 53.917 C 21.818 54.241,21.823 54.240,21.828 53.875 C 21.831 53.669,21.758 53.500,21.667 53.500 C 21.575 53.500,21.500 53.365,21.500 53.200 C 21.500 53.035,21.432 52.829,21.349 52.742 C 20.991 52.367,20.333 49.405,20.333 48.167 C 20.333 41.443,26.428 36.151,35.028 35.406 C 36.399 35.287,36.498 35.099,35.717 34.097 C 35.088 33.289,34.240 33.103,33.000 33.500 M58.750 36.487 C 58.567 36.561,58.051 36.674,57.604 36.740 C 57.156 36.806,56.706 36.933,56.604 37.021 C 56.501 37.110,56.004 37.485,55.500 37.854 C 54.996 38.223,54.433 38.652,54.250 38.807 C 54.067 38.962,53.299 39.523,52.543 40.055 C 51.788 40.586,51.075 41.112,50.960 41.222 C 50.844 41.333,50.337 41.721,49.833 42.084 C 49.329 42.448,48.842 42.806,48.750 42.880 C 48.658 42.954,48.077 43.391,47.458 43.850 C 46.112 44.850,46.129 44.793,47.208 44.659 C 48.381 44.513,48.560 44.430,49.932 43.396 C 50.582 42.906,51.370 42.393,51.682 42.257 C 52.363 41.960,52.919 41.511,53.040 41.161 C 53.089 41.020,53.475 40.727,53.898 40.510 C 54.321 40.292,54.667 40.056,54.667 39.985 C 54.667 39.914,54.803 39.812,54.971 39.759 C 55.138 39.706,55.419 39.530,55.596 39.368 C 55.772 39.206,56.217 38.851,56.583 38.578 C 56.950 38.306,57.395 37.952,57.573 37.792 C 57.751 37.631,57.945 37.500,58.006 37.500 C 58.066 37.500,58.333 37.311,58.599 37.081 C 58.962 36.767,59.199 36.687,59.542 36.761 C 60.028 36.866,60.183 36.606,59.736 36.434 C 59.404 36.307,59.171 36.320,58.750 36.487 M32.917 39.204 C 31.817 39.648,30.804 40.053,30.667 40.104 C 28.883 40.755,28.911 40.599,30.250 42.433 C 30.846 43.249,32.398 45.417,33.700 47.250 C 35.001 49.083,36.164 50.683,36.284 50.805 C 36.404 50.926,36.583 51.176,36.681 51.360 C 36.779 51.543,36.963 51.818,37.091 51.972 C 37.218 52.125,37.912 53.075,38.634 54.083 C 40.169 56.229,40.047 56.192,42.250 55.165 C 43.075 54.780,44.297 54.212,44.965 53.902 C 46.390 53.241,46.438 53.526,44.458 50.866 L 43.056 48.981 43.242 48.249 C 43.345 47.846,43.482 47.463,43.547 47.397 C 43.613 47.331,43.667 47.154,43.667 47.004 C 43.667 46.853,43.852 46.256,44.079 45.677 C 44.546 44.485,44.567 44.555,43.347 43.165 L 42.443 42.136 42.127 43.026 C 41.952 43.516,41.751 44.067,41.680 44.250 C 41.453 44.828,40.496 47.565,40.047 48.917 C 39.417 50.815,39.050 51.733,38.905 51.775 C 38.820 51.800,37.700 50.315,36.417 48.476 C 35.133 46.637,33.952 44.978,33.792 44.790 C 33.362 44.288,33.429 43.833,34.326 41.168 C 35.339 38.155,35.377 38.209,32.917 39.204 M34.667 39.300 C 34.667 39.557,34.602 39.838,34.523 39.925 C 34.444 40.012,34.248 40.496,34.086 41.000 C 33.925 41.504,33.727 42.047,33.647 42.206 C 33.566 42.365,33.500 42.640,33.500 42.818 C 33.500 42.995,33.375 43.357,33.223 43.623 C 32.958 44.084,33.891 45.876,34.531 46.139 C 34.606 46.169,34.667 46.268,34.667 46.358 C 34.667 46.553,37.006 49.893,37.199 49.972 C 37.273 50.003,37.333 50.102,37.333 50.192 C 37.333 50.388,38.122 51.470,38.554 51.865 C 38.890 52.173,38.945 52.161,40.500 51.452 C 41.004 51.222,41.688 50.922,42.020 50.785 C 42.400 50.627,42.706 50.347,42.849 50.026 C 43.066 49.535,43.667 49.728,43.667 50.290 C 43.667 50.365,43.817 50.535,44.000 50.667 C 44.183 50.799,44.333 50.985,44.333 51.080 C 44.333 51.175,44.502 51.440,44.708 51.668 C 45.590 52.643,46.024 53.333,45.756 53.333 C 45.613 53.333,45.346 53.408,45.164 53.500 C 44.982 53.592,44.702 53.728,44.542 53.804 C 44.381 53.879,43.987 54.078,43.667 54.244 C 42.640 54.778,42.509 54.833,42.273 54.833 C 42.145 54.833,41.947 54.946,41.833 55.083 C 41.719 55.221,41.485 55.333,41.313 55.333 C 41.141 55.333,41.000 55.408,41.000 55.500 C 41.000 55.860,40.114 55.657,39.728 55.208 C 39.511 54.956,39.334 54.705,39.334 54.651 C 39.333 54.596,39.146 54.334,38.917 54.068 C 38.688 53.801,38.500 53.532,38.500 53.470 C 38.500 53.408,38.405 53.258,38.289 53.137 C 38.173 53.016,37.786 52.504,37.430 52.000 C 37.073 51.496,36.718 51.058,36.641 51.028 C 36.563 50.997,36.500 50.877,36.500 50.760 C 36.500 50.644,36.331 50.365,36.125 50.140 C 35.919 49.916,35.649 49.540,35.526 49.305 C 35.402 49.071,35.121 48.684,34.901 48.447 C 34.680 48.209,34.500 47.950,34.500 47.871 C 34.500 47.791,34.237 47.420,33.917 47.045 C 33.596 46.670,33.333 46.282,33.333 46.182 C 33.333 46.082,33.275 46.000,33.203 46.000 C 33.131 46.000,32.930 45.756,32.757 45.458 C 32.584 45.160,32.395 44.879,32.338 44.833 C 32.281 44.788,31.801 44.132,31.273 43.376 C 30.745 42.621,30.223 41.906,30.115 41.787 C 29.892 41.544,29.500 40.883,29.500 40.752 C 29.500 40.705,29.651 40.667,29.836 40.667 C 30.020 40.667,30.301 40.600,30.461 40.519 C 30.620 40.438,30.975 40.282,31.250 40.171 C 31.525 40.060,31.962 39.864,32.222 39.735 C 32.481 39.606,32.838 39.500,33.014 39.500 C 33.189 39.500,33.333 39.425,33.333 39.333 C 33.333 39.242,33.516 39.167,33.740 39.167 C 33.964 39.167,34.193 39.092,34.250 39.000 C 34.448 38.680,34.667 38.837,34.667 39.300 " stroke="none" fill="#505052" fill-rule="evenodd"></path><path id="path4" d="M45.124 0.467 C 45.285 0.730,45.904 1.496,46.500 2.169 C 47.096 2.843,48.182 4.074,48.913 4.905 C 51.867 8.262,51.953 8.294,51.314 5.792 C 50.806 3.801,50.730 3.167,51.000 3.167 C 51.092 3.167,51.167 3.242,51.167 3.333 C 51.167 3.425,51.239 3.500,51.328 3.500 C 51.417 3.500,51.446 3.387,51.394 3.250 C 51.341 3.112,51.189 3.000,51.056 3.000 C 50.923 3.000,50.855 2.934,50.905 2.853 C 50.955 2.772,50.734 2.482,50.415 2.209 C 50.095 1.936,49.833 1.627,49.833 1.523 C 49.833 1.419,49.721 1.333,49.583 1.333 C 49.446 1.333,49.333 1.221,49.333 1.083 C 49.333 0.946,49.276 0.833,49.206 0.833 C 49.136 0.833,49.005 0.665,48.915 0.458 C 48.759 0.104,48.641 0.081,46.791 0.036 L 44.832 -0.011 45.124 0.467 M41.617 10.067 C 40.717 10.901,40.161 14.061,40.801 14.701 C 40.911 14.811,41.000 15.042,41.000 15.216 C 41.000 15.770,41.845 16.829,45.950 21.418 C 49.435 25.313,50.207 25.848,51.056 24.958 C 51.786 24.192,52.137 22.506,51.542 22.625 C 51.427 22.648,51.333 22.549,51.333 22.405 C 51.333 22.130,51.034 21.759,50.750 21.680 C 50.658 21.654,50.599 21.575,50.618 21.504 C 50.637 21.432,50.356 21.052,49.993 20.659 C 49.630 20.266,49.333 19.916,49.333 19.881 C 49.333 19.759,48.514 19.000,48.382 19.000 C 48.308 19.000,48.152 18.784,48.035 18.519 C 47.764 17.907,45.537 15.574,45.377 15.734 C 45.311 15.800,45.218 16.763,45.170 17.873 L 45.083 19.892 44.329 19.155 C 43.417 18.262,41.656 16.215,41.394 15.741 C 40.155 13.501,40.909 9.833,42.609 9.833 C 43.235 9.833,44.333 10.786,44.333 11.329 C 44.333 11.504,44.408 11.693,44.500 11.750 C 44.725 11.889,44.711 11.785,44.400 11.007 C 43.905 9.770,42.463 9.283,41.617 10.067 M58.250 14.167 L 56.917 14.250 56.917 18.750 C 56.917 21.225,56.978 26.137,57.053 29.667 C 57.128 33.196,57.128 36.167,57.053 36.270 C 56.978 36.372,55.642 37.408,54.083 38.572 C 52.525 39.736,50.762 41.057,50.167 41.508 C 48.367 42.868,47.642 43.403,47.200 43.698 C 46.687 44.040,45.632 45.021,45.703 45.092 C 46.109 45.497,48.731 44.631,50.011 43.668 C 51.718 42.385,51.764 42.380,52.460 43.417 C 54.898 47.052,55.306 52.124,53.401 55.119 C 53.126 55.552,53.099 55.833,53.333 55.833 C 53.425 55.833,53.500 55.721,53.500 55.583 C 53.500 55.446,53.558 55.333,53.629 55.333 C 53.835 55.333,54.789 53.344,55.189 52.078 C 55.483 51.148,55.558 50.502,55.565 48.833 C 55.576 46.079,55.225 44.874,53.509 41.783 C 53.205 41.235,52.878 41.560,56.333 38.981 C 57.387 38.194,58.549 37.351,58.914 37.108 C 59.279 36.865,59.466 36.667,59.330 36.667 C 59.194 36.667,58.865 36.854,58.599 37.084 C 58.333 37.313,58.066 37.500,58.006 37.500 C 57.945 37.500,57.751 37.631,57.573 37.792 C 57.395 37.952,56.950 38.306,56.583 38.578 C 56.217 38.851,55.772 39.206,55.596 39.368 C 55.419 39.530,55.138 39.706,54.971 39.759 C 54.803 39.812,54.667 39.914,54.667 39.985 C 54.667 40.056,54.321 40.292,53.898 40.510 C 53.475 40.727,53.089 41.020,53.040 41.161 C 52.919 41.511,52.363 41.960,51.682 42.257 C 51.370 42.393,50.582 42.906,49.932 43.396 C 48.560 44.430,48.381 44.513,47.208 44.659 C 46.129 44.793,46.112 44.850,47.458 43.850 C 48.077 43.391,48.658 42.954,48.750 42.880 C 48.842 42.806,49.329 42.448,49.833 42.084 C 50.337 41.721,50.844 41.333,50.960 41.222 C 51.075 41.112,51.788 40.586,52.543 40.055 C 53.299 39.523,54.067 38.962,54.250 38.807 C 54.433 38.652,54.996 38.223,55.500 37.854 C 56.004 37.485,56.496 37.114,56.593 37.031 C 56.854 36.807,58.812 36.441,59.626 36.464 L 60.336 36.485 60.293 25.298 C 60.251 14.242,60.246 14.111,59.917 14.097 C 59.733 14.090,58.983 14.121,58.250 14.167 M36.620 25.042 C 36.708 29.892,36.546 29.384,38.750 31.738 C 39.025 32.031,39.475 32.556,39.750 32.905 C 40.025 33.253,40.517 33.810,40.843 34.144 C 41.169 34.477,41.656 35.050,41.926 35.417 C 42.196 35.783,42.645 36.308,42.924 36.583 C 43.203 36.858,43.728 37.458,44.090 37.917 C 45.546 39.756,46.045 40.145,46.440 39.750 C 46.578 39.613,46.626 39.500,46.548 39.500 C 46.469 39.500,46.280 39.294,46.128 39.042 C 45.830 38.550,45.287 37.887,44.526 37.083 C 44.265 36.808,43.946 36.425,43.818 36.232 C 43.689 36.039,43.171 35.409,42.667 34.833 C 42.162 34.257,41.581 33.537,41.374 33.234 C 41.168 32.931,40.905 32.623,40.790 32.550 C 40.675 32.476,40.358 32.117,40.085 31.750 C 39.462 30.912,39.239 30.646,38.441 29.780 C 37.458 28.713,37.281 27.798,37.057 22.625 C 36.999 21.301,36.922 20.833,36.761 20.833 C 36.586 20.833,36.558 21.649,36.620 25.042 M33.833 33.175 C 24.000 34.337,17.380 41.764,19.402 49.367 C 19.739 50.636,19.976 51.189,19.989 50.742 C 19.995 50.554,19.937 50.329,19.860 50.242 C 19.214 49.510,19.228 43.883,19.878 43.234 C 19.945 43.166,20.000 43.013,20.000 42.893 C 20.000 42.666,20.829 40.812,20.996 40.667 C 21.048 40.621,21.226 40.372,21.390 40.114 C 22.363 38.585,24.388 36.751,26.249 35.710 C 27.675 34.914,30.009 34.000,30.619 34.000 C 30.818 34.000,31.021 33.934,31.070 33.854 C 31.157 33.714,31.929 33.596,34.089 33.394 L 35.095 33.299 35.704 34.080 C 36.498 35.100,36.403 35.287,35.028 35.406 C 26.428 36.151,20.333 41.443,20.333 48.167 C 20.333 49.405,20.991 52.367,21.349 52.742 C 21.432 52.829,21.500 53.035,21.500 53.200 C 21.500 53.365,21.575 53.500,21.667 53.500 C 21.758 53.500,21.831 53.669,21.828 53.875 C 21.823 54.240,21.818 54.241,21.634 53.917 C 21.530 53.733,21.398 53.546,21.340 53.500 C 21.282 53.454,20.984 52.908,20.678 52.286 C 20.051 51.009,19.780 50.860,20.354 52.107 C 21.109 53.745,21.866 54.790,22.027 54.417 C 22.144 54.146,22.156 54.167,22.087 54.523 C 22.007 54.943,24.704 57.852,24.947 57.608 C 25.020 57.536,24.931 57.413,24.041 56.361 C 23.834 56.117,23.623 55.785,23.571 55.625 C 23.520 55.465,23.408 55.333,23.322 55.333 C 23.048 55.333,23.155 54.897,23.583 54.266 C 23.813 53.928,24.000 53.584,24.000 53.500 C 24.000 53.416,24.192 53.065,24.427 52.718 C 24.662 52.372,24.971 51.844,25.113 51.544 C 25.255 51.245,25.438 51.000,25.519 51.000 C 25.600 51.000,25.667 50.859,25.667 50.687 C 25.667 50.515,25.779 50.281,25.917 50.167 C 26.054 50.053,26.167 49.885,26.167 49.795 C 26.167 49.705,26.392 49.298,26.667 48.891 C 26.942 48.483,27.167 48.082,27.167 47.999 C 27.167 47.916,27.335 47.584,27.542 47.262 C 28.480 45.795,28.667 45.463,28.667 45.259 C 28.667 45.139,28.783 44.944,28.925 44.826 C 29.067 44.709,29.331 44.287,29.512 43.889 C 29.964 42.897,30.288 43.018,31.417 44.601 C 31.600 44.858,31.881 45.203,32.042 45.368 C 32.202 45.532,32.333 45.723,32.334 45.792 C 32.334 45.860,32.528 46.142,32.766 46.417 C 33.004 46.692,33.620 47.517,34.136 48.250 C 35.058 49.560,35.242 49.809,35.591 50.214 C 35.744 50.391,38.308 53.941,39.513 55.643 C 39.801 56.050,40.048 56.232,40.263 56.194 C 40.800 56.101,40.926 55.844,40.416 55.882 C 39.995 55.913,39.808 55.725,38.634 54.083 C 37.912 53.075,37.218 52.125,37.091 51.972 C 36.963 51.818,36.779 51.543,36.681 51.360 C 36.583 51.176,36.404 50.926,36.284 50.805 C 36.164 50.683,35.001 49.083,33.700 47.250 C 32.398 45.417,30.846 43.249,30.250 42.433 C 28.966 40.674,28.988 40.792,29.875 40.422 C 30.265 40.260,30.733 40.064,30.917 39.986 C 33.428 38.930,34.988 38.396,35.055 38.570 C 35.097 38.680,34.768 39.853,34.323 41.177 C 33.429 43.833,33.362 44.288,33.792 44.790 C 33.952 44.978,35.133 46.637,36.417 48.476 C 37.700 50.315,38.820 51.800,38.905 51.775 C 39.050 51.733,39.417 50.815,40.047 48.917 C 40.496 47.565,41.453 44.828,41.680 44.250 C 41.751 44.067,41.952 43.516,42.127 43.026 L 42.443 42.136 43.347 43.165 C 44.567 44.555,44.546 44.485,44.079 45.677 C 43.852 46.256,43.667 46.853,43.667 47.004 C 43.667 47.154,43.613 47.331,43.547 47.397 C 43.482 47.463,43.345 47.846,43.242 48.249 L 43.056 48.981 44.458 50.866 C 45.230 51.902,45.932 52.881,46.019 53.041 C 46.156 53.292,45.941 53.445,44.464 54.153 C 43.521 54.604,42.825 54.977,42.917 54.982 C 43.255 55.001,46.250 53.410,46.250 53.211 C 46.250 53.098,46.124 52.836,45.969 52.628 C 45.815 52.420,45.160 51.538,44.512 50.667 C 43.124 48.798,43.166 49.147,44.014 46.581 C 44.756 44.335,44.766 44.465,43.750 43.247 C 42.451 41.689,42.249 41.578,42.084 42.331 C 42.024 42.605,41.905 42.872,41.821 42.925 C 41.736 42.977,41.667 43.198,41.667 43.417 C 41.667 43.635,41.592 43.860,41.500 43.917 C 41.408 43.973,41.333 44.196,41.333 44.411 C 41.333 44.626,41.155 45.166,40.937 45.610 C 40.719 46.053,40.449 46.754,40.337 47.167 C 40.224 47.579,40.028 48.116,39.900 48.359 C 39.771 48.602,39.667 48.954,39.667 49.141 C 39.667 49.328,39.592 49.527,39.500 49.583 C 39.408 49.640,39.333 49.865,39.333 50.083 C 39.333 50.302,39.258 50.527,39.167 50.583 C 39.075 50.640,39.000 50.832,39.000 51.010 C 39.000 51.605,38.419 51.095,37.897 50.042 C 37.749 49.744,37.562 49.500,37.481 49.500 C 37.400 49.500,37.333 49.430,37.333 49.346 C 37.333 49.140,35.994 47.155,35.625 46.814 C 35.465 46.666,35.333 46.384,35.333 46.189 C 35.333 45.993,35.274 45.833,35.201 45.833 C 34.783 45.833,34.356 41.454,34.736 41.073 C 34.881 40.928,35.000 40.594,35.000 40.331 C 35.000 40.068,35.075 39.807,35.167 39.750 C 35.625 39.467,35.351 38.167,34.833 38.167 C 34.558 38.167,34.333 38.242,34.333 38.333 C 34.333 38.425,34.207 38.500,34.053 38.500 C 33.900 38.500,33.526 38.589,33.224 38.699 C 32.567 38.936,32.341 38.785,32.723 38.363 C 32.875 38.195,33.000 37.932,33.000 37.779 C 33.000 37.625,33.074 37.500,33.164 37.500 C 33.255 37.500,33.434 37.249,33.562 36.941 C 33.889 36.160,34.608 35.698,35.594 35.635 C 36.623 35.570,36.902 34.674,36.092 34.037 C 35.858 33.853,35.667 33.622,35.667 33.524 C 35.667 33.365,35.105 32.963,34.969 33.024 C 34.940 33.037,34.429 33.105,33.833 33.175 M41.667 55.425 C 41.254 55.639,40.996 55.818,41.094 55.823 C 41.307 55.835,42.667 55.192,42.667 55.079 C 42.667 54.944,42.445 55.021,41.667 55.425 " stroke="none" fill="#848486" fill-rule="evenodd"></path></g></svg>